<svg width="1225" height="251" viewBox="0 0 1225 251" fill="none" xmlns="http://www.w3.org/2000/svg">
<path d="M22.481 1.3501V227.499" stroke="#F0F0F0"/>
<path d="M108.163 1.3501V227.499" stroke="#F0F0F0"/>
<path d="M193.845 1.3501V227.499" stroke="#F0F0F0"/>
<path d="M279.527 1.3501V227.499" stroke="#F0F0F0"/>
<path d="M365.209 1.3501V227.499" stroke="#F0F0F0"/>
<path d="M450.892 1.3501V227.499" stroke="#F0F0F0"/>
<path d="M536.574 1.3501V227.499" stroke="#F0F0F0"/>
<path d="M622.256 1.3501V227.499" stroke="#F0F0F0"/>
<path d="M707.09 1.3501V227.499" stroke="#F0F0F0"/>
<path d="M792.772 1.3501V227.499" stroke="#F0F0F0"/>
<path d="M878.454 1.3501V227.499" stroke="#F0F0F0"/>
<path d="M964.136 1.3501V227.499" stroke="#F0F0F0"/>
<path d="M1049.82 1.3501V227.499" stroke="#F0F0F0"/>
<path d="M1135.5 1.3501V227.499" stroke="#F0F0F0"/>
<path d="M1222.03 1.3501V227.499" stroke="#F0F0F0"/>
<path d="M22.905 227.612H1221.61" stroke="#F0F0F0"/>
<path d="M22.905 216.361H1221.61" stroke="#F0F0F0"/>
<path d="M22.905 205.109H1221.61" stroke="#F0F0F0"/>
<path d="M22.905 193.633H1221.61" stroke="#F0F0F0"/>
<path d="M22.905 182.382H1221.61" stroke="#F0F0F0"/>
<path d="M22.905 171.131H1221.61" stroke="#F0F0F0"/>
<path d="M22.905 159.88H1221.61" stroke="#F0F0F0"/>
<path d="M22.905 148.403H1221.61" stroke="#F0F0F0"/>
<path d="M22.905 137.152H1221.61" stroke="#F0F0F0"/>
<path d="M22.905 125.901H1221.61" stroke="#F0F0F0"/>
<path d="M22.905 114.425H1221.61" stroke="#F0F0F0"/>
<path d="M22.905 103.173H1221.61" stroke="#F0F0F0"/>
<path d="M22.905 91.9224H1221.61" stroke="#F0F0F0"/>
<path d="M22.905 80.6709H1221.61" stroke="#F0F0F0"/>
<path d="M22.905 69.4199H1221.61" stroke="#F0F0F0"/>
<path d="M22.905 57.9438H1221.61" stroke="#F0F0F0"/>
<path d="M22.905 46.6924H1221.61" stroke="#F0F0F0"/>
<path d="M22.905 35.4414H1221.61" stroke="#F0F0F0"/>
<path d="M22.905 23.9653H1221.61" stroke="#F0F0F0"/>
<path d="M22.905 12.7139H1221.61" stroke="#F0F0F0"/>
<path d="M22.905 1.4624H1221.61" stroke="#F0F0F0"/>
<path d="M22.905 227.612H1221.61" stroke="#F0F0F0"/>
<path d="M22.481 1.3501V227.499" stroke="#F0F0F0"/>
<path d="M21.3838 231.962H19.0986V238.3H18.166V231.962H15.8857V231.19H21.3838V231.962ZM24.0009 238.397C23.2848 238.397 22.7021 238.163 22.2529 237.694C21.8037 237.222 21.5791 236.592 21.5791 235.805V235.639C21.5791 235.115 21.6783 234.647 21.8769 234.237C22.0787 233.824 22.3587 233.502 22.7168 233.271C23.0781 233.036 23.4687 232.919 23.8886 232.919C24.5755 232.919 25.1093 233.145 25.4902 233.598C25.8711 234.05 26.0615 234.698 26.0615 235.541V235.917H22.4824C22.4954 236.438 22.6468 236.859 22.9365 237.182C23.2295 237.501 23.6005 237.66 24.0498 237.66C24.3688 237.66 24.639 237.595 24.8603 237.465C25.0817 237.335 25.2754 237.162 25.4414 236.947L25.9931 237.377C25.5504 238.057 24.8864 238.397 24.0009 238.397ZM23.8886 233.661C23.5241 233.661 23.2181 233.795 22.9707 234.062C22.7233 234.325 22.5703 234.696 22.5117 235.175H25.1582V235.106C25.1321 234.647 25.0084 234.293 24.7871 234.042C24.5657 233.788 24.2662 233.661 23.8886 233.661ZM28.8838 234.945L30.0556 233.017H31.1103L29.3818 235.629L31.164 238.3H30.1191L28.8984 236.322L27.6777 238.3H26.6279L28.4101 235.629L26.6816 233.017H27.7265L28.8838 234.945ZM30.0263 243.737V245.017H31.0127V245.715H30.0263V248.991C30.0263 249.203 30.0703 249.362 30.1582 249.47C30.2461 249.574 30.3958 249.626 30.6074 249.626C30.7116 249.626 30.8548 249.606 31.0371 249.567V250.3C30.7994 250.365 30.5683 250.397 30.3437 250.397C29.9401 250.397 29.6357 250.275 29.4306 250.031C29.2255 249.787 29.123 249.44 29.123 248.991V245.715H28.1611V245.017H29.123V243.737H30.0263Z" fill="#A3A3A3"/>
<path d="M107.005 231.962H104.72V238.3H103.787V231.962H101.507V231.19H107.005V231.962ZM109.622 238.397C108.906 238.397 108.323 238.163 107.874 237.694C107.425 237.222 107.2 236.592 107.2 235.805V235.639C107.2 235.115 107.3 234.647 107.498 234.237C107.7 233.824 107.98 233.502 108.338 233.271C108.699 233.036 109.09 232.919 109.51 232.919C110.197 232.919 110.731 233.145 111.112 233.598C111.492 234.05 111.683 234.698 111.683 235.541V235.917H108.104C108.117 236.438 108.268 236.859 108.558 237.182C108.851 237.501 109.222 237.66 109.671 237.66C109.99 237.66 110.26 237.595 110.482 237.465C110.703 237.335 110.897 237.162 111.063 236.947L111.614 237.377C111.172 238.057 110.508 238.397 109.622 238.397ZM109.51 233.661C109.145 233.661 108.839 233.795 108.592 234.062C108.345 234.325 108.192 234.696 108.133 235.175H110.78V235.106C110.753 234.647 110.63 234.293 110.408 234.042C110.187 233.788 109.888 233.661 109.51 233.661ZM114.505 234.945L115.677 233.017H116.732L115.003 235.629L116.785 238.3H115.74L114.52 236.322L113.299 238.3H112.249L114.031 235.629L112.303 233.017H113.348L114.505 234.945ZM115.648 243.737V245.017H116.634V245.715H115.648V248.991C115.648 249.203 115.692 249.362 115.78 249.47C115.867 249.574 116.017 249.626 116.229 249.626C116.333 249.626 116.476 249.606 116.658 249.567V250.3C116.421 250.365 116.19 250.397 115.965 250.397C115.561 250.397 115.257 250.275 115.052 250.031C114.847 249.787 114.744 249.44 114.744 248.991V245.715H113.782V245.017H114.744V243.737H115.648Z" fill="#A3A3A3"/>
<path d="M192.627 231.962H190.342V238.3H189.409V231.962H187.129V231.19H192.627V231.962ZM195.244 238.397C194.528 238.397 193.945 238.163 193.496 237.694C193.047 237.222 192.822 236.592 192.822 235.805V235.639C192.822 235.115 192.922 234.647 193.12 234.237C193.322 233.824 193.602 233.502 193.96 233.271C194.321 233.036 194.712 232.919 195.132 232.919C195.819 232.919 196.353 233.145 196.733 233.598C197.114 234.05 197.305 234.698 197.305 235.541V235.917H193.726C193.739 236.438 193.89 236.859 194.18 237.182C194.473 237.501 194.844 237.66 195.293 237.66C195.612 237.66 195.882 237.595 196.103 237.465C196.325 237.335 196.519 237.162 196.685 236.947L197.236 237.377C196.794 238.057 196.13 238.397 195.244 238.397ZM195.132 233.661C194.767 233.661 194.461 233.795 194.214 234.062C193.966 234.325 193.813 234.696 193.755 235.175H196.401V235.106C196.375 234.647 196.252 234.293 196.03 234.042C195.809 233.788 195.509 233.661 195.132 233.661ZM200.127 234.945L201.299 233.017H202.353L200.625 235.629L202.407 238.3H201.362L200.142 236.322L198.921 238.3H197.871L199.653 235.629L197.925 233.017H198.97L200.127 234.945ZM201.269 243.737V245.017H202.256V245.715H201.269V248.991C201.269 249.203 201.313 249.362 201.401 249.47C201.489 249.574 201.639 249.626 201.851 249.626C201.955 249.626 202.098 249.606 202.28 249.567V250.3C202.043 250.365 201.811 250.397 201.587 250.397C201.183 250.397 200.879 250.275 200.674 250.031C200.469 249.787 200.366 249.44 200.366 248.991V245.715H199.404V245.017H200.366V243.737H201.269Z" fill="#A3A3A3"/>
<path d="M278.248 231.962H275.963V238.3H275.03V231.962H272.75V231.19H278.248V231.962ZM280.865 238.397C280.149 238.397 279.566 238.163 279.117 237.694C278.668 237.222 278.443 236.592 278.443 235.805V235.639C278.443 235.115 278.543 234.647 278.741 234.237C278.943 233.824 279.223 233.502 279.581 233.271C279.942 233.036 280.333 232.919 280.753 232.919C281.44 232.919 281.974 233.145 282.354 233.598C282.735 234.05 282.926 234.698 282.926 235.541V235.917H279.347C279.36 236.438 279.511 236.859 279.801 237.182C280.094 237.501 280.465 237.66 280.914 237.66C281.233 237.66 281.503 237.595 281.725 237.465C281.946 237.335 282.14 237.162 282.306 236.947L282.857 237.377C282.415 238.057 281.751 238.397 280.865 238.397ZM280.753 233.661C280.388 233.661 280.082 233.795 279.835 234.062C279.588 234.325 279.435 234.696 279.376 235.175H282.022V235.106C281.996 234.647 281.873 234.293 281.651 234.042C281.43 233.788 281.13 233.661 280.753 233.661ZM285.748 234.945L286.92 233.017H287.975L286.246 235.629L288.028 238.3H286.983L285.763 236.322L284.542 238.3H283.492L285.274 235.629L283.546 233.017H284.591L285.748 234.945ZM286.891 243.737V245.017H287.877V245.715H286.891V248.991C286.891 249.203 286.935 249.362 287.022 249.47C287.11 249.574 287.26 249.626 287.472 249.626C287.576 249.626 287.719 249.606 287.901 249.567V250.3C287.664 250.365 287.433 250.397 287.208 250.397C286.804 250.397 286.5 250.275 286.295 250.031C286.09 249.787 285.987 249.44 285.987 248.991V245.715H285.025V245.017H285.987V243.737H286.891Z" fill="#A3A3A3"/>
<path d="M363.87 231.962H361.584V238.3H360.652V231.962H358.372V231.19H363.87V231.962ZM366.487 238.397C365.771 238.397 365.188 238.163 364.739 237.694C364.29 237.222 364.065 236.592 364.065 235.805V235.639C364.065 235.115 364.164 234.647 364.363 234.237C364.565 233.824 364.845 233.502 365.203 233.271C365.564 233.036 365.955 232.919 366.374 232.919C367.061 232.919 367.595 233.145 367.976 233.598C368.357 234.05 368.547 234.698 368.547 235.541V235.917H364.968C364.981 236.438 365.133 236.859 365.422 237.182C365.715 237.501 366.086 237.66 366.536 237.66C366.855 237.66 367.125 237.595 367.346 237.465C367.568 237.335 367.761 237.162 367.927 236.947L368.479 237.377C368.036 238.057 367.372 238.397 366.487 238.397ZM366.374 233.661C366.01 233.661 365.704 233.795 365.457 234.062C365.209 234.325 365.056 234.696 364.998 235.175H367.644V235.106C367.618 234.647 367.494 234.293 367.273 234.042C367.052 233.788 366.752 233.661 366.374 233.661ZM371.37 234.945L372.541 233.017H373.596L371.868 235.629L373.65 238.3H372.605L371.384 236.322L370.164 238.3H369.114L370.896 235.629L369.167 233.017H370.212L371.37 234.945ZM372.512 243.737V245.017H373.498V245.715H372.512V248.991C372.512 249.203 372.556 249.362 372.644 249.47C372.732 249.574 372.882 249.626 373.093 249.626C373.197 249.626 373.341 249.606 373.523 249.567V250.3C373.285 250.365 373.054 250.397 372.83 250.397C372.426 250.397 372.122 250.275 371.916 250.031C371.711 249.787 371.609 249.44 371.609 248.991V245.715H370.647V245.017H371.609V243.737H372.512Z" fill="#A3A3A3"/>
<path d="M449.492 231.962H447.207V238.3H446.274V231.962H443.994V231.19H449.492V231.962ZM452.109 238.397C451.393 238.397 450.81 238.163 450.361 237.694C449.912 237.222 449.687 236.592 449.687 235.805V235.639C449.687 235.115 449.786 234.647 449.985 234.237C450.187 233.824 450.467 233.502 450.825 233.271C451.186 233.036 451.577 232.919 451.997 232.919C452.683 232.919 453.217 233.145 453.598 233.598C453.979 234.05 454.169 234.698 454.169 235.541V235.917H450.59C450.603 236.438 450.755 236.859 451.044 237.182C451.337 237.501 451.708 237.66 452.158 237.66C452.477 237.66 452.747 237.595 452.968 237.465C453.19 237.335 453.383 237.162 453.549 236.947L454.101 237.377C453.658 238.057 452.994 238.397 452.109 238.397ZM451.997 233.661C451.632 233.661 451.326 233.795 451.079 234.062C450.831 234.325 450.678 234.696 450.62 235.175H453.266V235.106C453.24 234.647 453.116 234.293 452.895 234.042C452.674 233.788 452.374 233.661 451.997 233.661ZM456.992 234.945L458.164 233.017H459.218L457.49 235.629L459.272 238.3H458.227L457.006 236.322L455.786 238.3H454.736L456.518 235.629L454.79 233.017H455.834L456.992 234.945ZM458.134 243.737V245.017H459.121V245.715H458.134V248.991C458.134 249.203 458.178 249.362 458.266 249.47C458.354 249.574 458.504 249.626 458.715 249.626C458.819 249.626 458.963 249.606 459.145 249.567V250.3C458.907 250.365 458.676 250.397 458.452 250.397C458.048 250.397 457.744 250.275 457.539 250.031C457.333 249.787 457.231 249.44 457.231 248.991V245.715H456.269V245.017H457.231V243.737H458.134Z" fill="#A3A3A3"/>
<path d="M535.113 231.962H532.828V238.3H531.895V231.962H529.615V231.19H535.113V231.962ZM537.73 238.397C537.014 238.397 536.431 238.163 535.982 237.694C535.533 237.222 535.308 236.592 535.308 235.805V235.639C535.308 235.115 535.407 234.647 535.606 234.237C535.808 233.824 536.088 233.502 536.446 233.271C536.807 233.036 537.198 232.919 537.618 232.919C538.304 232.919 538.838 233.145 539.219 233.598C539.6 234.05 539.79 234.698 539.79 235.541V235.917H536.211C536.224 236.438 536.376 236.859 536.665 237.182C536.958 237.501 537.33 237.66 537.779 237.66C538.098 237.66 538.368 237.595 538.589 237.465C538.811 237.335 539.004 237.162 539.17 236.947L539.722 237.377C539.279 238.057 538.615 238.397 537.73 238.397ZM537.618 233.661C537.253 233.661 536.947 233.795 536.7 234.062C536.452 234.325 536.299 234.696 536.241 235.175H538.887V235.106C538.861 234.647 538.737 234.293 538.516 234.042C538.295 233.788 537.995 233.661 537.618 233.661ZM542.613 234.945L543.785 233.017H544.839L543.111 235.629L544.893 238.3H543.848L542.627 236.322L541.407 238.3H540.357L542.139 235.629L540.411 233.017H541.456L542.613 234.945ZM543.755 243.737V245.017H544.742V245.715H543.755V248.991C543.755 249.203 543.799 249.362 543.887 249.47C543.975 249.574 544.125 249.626 544.336 249.626C544.441 249.626 544.584 249.606 544.766 249.567V250.3C544.528 250.365 544.297 250.397 544.073 250.397C543.669 250.397 543.365 250.275 543.16 250.031C542.955 249.787 542.852 249.44 542.852 248.991V245.715H541.89V245.017H542.852V243.737H543.755Z" fill="#A3A3A3"/>
<path d="M620.734 231.962H618.449V238.3H617.517V231.962H615.236V231.19H620.734V231.962ZM623.352 238.397C622.635 238.397 622.053 238.163 621.603 237.694C621.154 237.222 620.93 236.592 620.93 235.805V235.639C620.93 235.115 621.029 234.647 621.228 234.237C621.429 233.824 621.709 233.502 622.067 233.271C622.429 233.036 622.819 232.919 623.239 232.919C623.926 232.919 624.46 233.145 624.841 233.598C625.222 234.05 625.412 234.698 625.412 235.541V235.917H621.833C621.846 236.438 621.997 236.859 622.287 237.182C622.58 237.501 622.951 237.66 623.4 237.66C623.719 237.66 623.99 237.595 624.211 237.465C624.432 237.335 624.626 237.162 624.792 236.947L625.344 237.377C624.901 238.057 624.237 238.397 623.352 238.397ZM623.239 233.661C622.875 233.661 622.569 233.795 622.321 234.062C622.074 234.325 621.921 234.696 621.862 235.175H624.509V235.106C624.483 234.647 624.359 234.293 624.138 234.042C623.916 233.788 623.617 233.661 623.239 233.661ZM628.234 234.945L629.406 233.017H630.461L628.732 235.629L630.515 238.3H629.47L628.249 236.322L627.028 238.3H625.978L627.761 235.629L626.032 233.017H627.077L628.234 234.945ZM629.377 243.737V245.017H630.363V245.715H629.377V248.991C629.377 249.203 629.421 249.362 629.509 249.47C629.597 249.574 629.746 249.626 629.958 249.626C630.062 249.626 630.205 249.606 630.388 249.567V250.3C630.15 250.365 629.919 250.397 629.694 250.397C629.291 250.397 628.986 250.275 628.781 250.031C628.576 249.787 628.474 249.44 628.474 248.991V245.715H627.512V245.017H628.474V243.737H629.377Z" fill="#A3A3A3"/>
<path d="M706.355 231.962H704.07V238.3H703.138V231.962H700.857V231.19H706.355V231.962ZM708.973 238.397C708.256 238.397 707.674 238.163 707.225 237.694C706.775 237.222 706.551 236.592 706.551 235.805V235.639C706.551 235.115 706.65 234.647 706.849 234.237C707.05 233.824 707.33 233.502 707.688 233.271C708.05 233.036 708.44 232.919 708.86 232.919C709.547 232.919 710.081 233.145 710.462 233.598C710.843 234.05 711.033 234.698 711.033 235.541V235.917H707.454C707.467 236.438 707.618 236.859 707.908 237.182C708.201 237.501 708.572 237.66 709.021 237.66C709.34 237.66 709.611 237.595 709.832 237.465C710.053 237.335 710.247 237.162 710.413 236.947L710.965 237.377C710.522 238.057 709.858 238.397 708.973 238.397ZM708.86 233.661C708.496 233.661 708.19 233.795 707.942 234.062C707.695 234.325 707.542 234.696 707.483 235.175H710.13V235.106C710.104 234.647 709.98 234.293 709.759 234.042C709.537 233.788 709.238 233.661 708.86 233.661ZM713.855 234.945L715.027 233.017H716.082L714.353 235.629L716.136 238.3H715.091L713.87 236.322L712.649 238.3H711.6L713.382 235.629L711.653 233.017H712.698L713.855 234.945ZM714.998 243.737V245.017H715.984V245.715H714.998V248.991C714.998 249.203 715.042 249.362 715.13 249.47C715.218 249.574 715.367 249.626 715.579 249.626C715.683 249.626 715.826 249.606 716.009 249.567V250.3C715.771 250.365 715.54 250.397 715.315 250.397C714.912 250.397 714.607 250.275 714.402 250.031C714.197 249.787 714.095 249.44 714.095 248.991V245.715H713.133V245.017H714.095V243.737H714.998Z" fill="#A3A3A3"/>
<path d="M791.977 231.962H789.692V238.3H788.759V231.962H786.479V231.19H791.977V231.962ZM794.594 238.397C793.878 238.397 793.296 238.163 792.846 237.694C792.397 237.222 792.173 236.592 792.173 235.805V235.639C792.173 235.115 792.272 234.647 792.47 234.237C792.672 233.824 792.952 233.502 793.31 233.271C793.672 233.036 794.062 232.919 794.482 232.919C795.169 232.919 795.703 233.145 796.084 233.598C796.465 234.05 796.655 234.698 796.655 235.541V235.917H793.076C793.089 236.438 793.24 236.859 793.53 237.182C793.823 237.501 794.194 237.66 794.643 237.66C794.962 237.66 795.232 237.595 795.454 237.465C795.675 237.335 795.869 237.162 796.035 236.947L796.587 237.377C796.144 238.057 795.48 238.397 794.594 238.397ZM794.482 233.661C794.118 233.661 793.812 233.795 793.564 234.062C793.317 234.325 793.164 234.696 793.105 235.175H795.752V235.106C795.726 234.647 795.602 234.293 795.381 234.042C795.159 233.788 794.86 233.661 794.482 233.661ZM799.477 234.945L800.649 233.017H801.704L799.975 235.629L801.758 238.3H800.713L799.492 236.322L798.271 238.3H797.221L799.004 235.629L797.275 233.017H798.32L799.477 234.945ZM800.62 243.737V245.017H801.606V245.715H800.62V248.991C800.62 249.203 800.664 249.362 800.752 249.47C800.84 249.574 800.989 249.626 801.201 249.626C801.305 249.626 801.448 249.606 801.631 249.567V250.3C801.393 250.365 801.162 250.397 800.937 250.397C800.534 250.397 800.229 250.275 800.024 250.031C799.819 249.787 799.717 249.44 799.717 248.991V245.715H798.755V245.017H799.717V243.737H800.62Z" fill="#A3A3A3"/>
<path d="M877.599 231.962H875.314V238.3H874.381V231.962H872.101V231.19H877.599V231.962ZM880.216 238.397C879.5 238.397 878.917 238.163 878.468 237.694C878.019 237.222 877.794 236.592 877.794 235.805V235.639C877.794 235.115 877.894 234.647 878.092 234.237C878.294 233.824 878.574 233.502 878.932 233.271C879.293 233.036 879.684 232.919 880.104 232.919C880.791 232.919 881.325 233.145 881.706 233.598C882.086 234.05 882.277 234.698 882.277 235.541V235.917H878.698C878.711 236.438 878.862 236.859 879.152 237.182C879.445 237.501 879.816 237.66 880.265 237.66C880.584 237.66 880.854 237.595 881.076 237.465C881.297 237.335 881.491 237.162 881.657 236.947L882.208 237.377C881.766 238.057 881.102 238.397 880.216 238.397ZM880.104 233.661C879.739 233.661 879.433 233.795 879.186 234.062C878.939 234.325 878.786 234.696 878.727 235.175H881.373V235.106C881.347 234.647 881.224 234.293 881.002 234.042C880.781 233.788 880.482 233.661 880.104 233.661ZM885.099 234.945L886.271 233.017H887.326L885.597 235.629L887.379 238.3H886.334L885.114 236.322L883.893 238.3H882.843L884.625 235.629L882.897 233.017H883.942L885.099 234.945ZM886.242 243.737V245.017H887.228V245.715H886.242V248.991C886.242 249.203 886.286 249.362 886.373 249.47C886.461 249.574 886.611 249.626 886.823 249.626C886.927 249.626 887.07 249.606 887.252 249.567V250.3C887.015 250.365 886.784 250.397 886.559 250.397C886.155 250.397 885.851 250.275 885.646 250.031C885.441 249.787 885.338 249.44 885.338 248.991V245.715H884.376V245.017H885.338V243.737H886.242Z" fill="#A3A3A3"/>
<path d="M963.221 231.962H960.936V238.3H960.003V231.962H957.723V231.19H963.221V231.962ZM965.838 238.397C965.122 238.397 964.539 238.163 964.09 237.694C963.641 237.222 963.416 236.592 963.416 235.805V235.639C963.416 235.115 963.515 234.647 963.714 234.237C963.916 233.824 964.196 233.502 964.554 233.271C964.915 233.036 965.306 232.919 965.726 232.919C966.412 232.919 966.946 233.145 967.327 233.598C967.708 234.05 967.898 234.698 967.898 235.541V235.917H964.319C964.332 236.438 964.484 236.859 964.773 237.182C965.066 237.501 965.437 237.66 965.887 237.66C966.206 237.66 966.476 237.595 966.697 237.465C966.919 237.335 967.112 237.162 967.278 236.947L967.83 237.377C967.387 238.057 966.723 238.397 965.838 238.397ZM965.726 233.661C965.361 233.661 965.055 233.795 964.808 234.062C964.56 234.325 964.407 234.696 964.349 235.175H966.995V235.106C966.969 234.647 966.845 234.293 966.624 234.042C966.403 233.788 966.103 233.661 965.726 233.661ZM970.721 234.945L971.893 233.017H972.947L971.219 235.629L973.001 238.3H971.956L970.735 236.322L969.515 238.3H968.465L970.247 235.629L968.519 233.017H969.563L970.721 234.945ZM971.863 243.737V245.017H972.85V245.715H971.863V248.991C971.863 249.203 971.907 249.362 971.995 249.47C972.083 249.574 972.233 249.626 972.444 249.626C972.548 249.626 972.692 249.606 972.874 249.567V250.3C972.636 250.365 972.405 250.397 972.181 250.397C971.777 250.397 971.473 250.275 971.268 250.031C971.062 249.787 970.96 249.44 970.96 248.991V245.715H969.998V245.017H970.96V243.737H971.863Z" fill="#A3A3A3"/>
<path d="M1048.84 231.962H1046.56V238.3H1045.62V231.962H1043.34V231.19H1048.84V231.962ZM1051.46 238.397C1050.74 238.397 1050.16 238.163 1049.71 237.694C1049.26 237.222 1049.04 236.592 1049.04 235.805V235.639C1049.04 235.115 1049.14 234.647 1049.34 234.237C1049.54 233.824 1049.82 233.502 1050.18 233.271C1050.54 233.036 1050.93 232.919 1051.35 232.919C1052.03 232.919 1052.57 233.145 1052.95 233.598C1053.33 234.05 1053.52 234.698 1053.52 235.541V235.917H1049.94C1049.95 236.438 1050.11 236.859 1050.39 237.182C1050.69 237.501 1051.06 237.66 1051.51 237.66C1051.83 237.66 1052.1 237.595 1052.32 237.465C1052.54 237.335 1052.73 237.162 1052.9 236.947L1053.45 237.377C1053.01 238.057 1052.34 238.397 1051.46 238.397ZM1051.35 233.661C1050.98 233.661 1050.68 233.795 1050.43 234.062C1050.18 234.325 1050.03 234.696 1049.97 235.175H1052.62V235.106C1052.59 234.647 1052.47 234.293 1052.25 234.042C1052.02 233.788 1051.72 233.661 1051.35 233.661ZM1056.34 234.945L1057.51 233.017H1058.57L1056.84 235.629L1058.62 238.3H1057.58L1056.36 236.322L1055.14 238.3H1054.09L1055.87 235.629L1054.14 233.017H1055.18L1056.34 234.945ZM1057.48 243.737V245.017H1058.47V245.715H1057.48V248.991C1057.48 249.203 1057.53 249.362 1057.62 249.47C1057.7 249.574 1057.85 249.626 1058.07 249.626C1058.17 249.626 1058.31 249.606 1058.5 249.567V250.3C1058.26 250.365 1058.03 250.397 1057.8 250.397C1057.4 250.397 1057.09 250.275 1056.89 250.031C1056.68 249.787 1056.58 249.44 1056.58 248.991V245.715H1055.62V245.017H1056.58V243.737H1057.48Z" fill="#A3A3A3"/>
<path d="M1134.46 231.962H1132.18V238.3H1131.25V231.962H1128.97V231.19H1134.46V231.962ZM1137.08 238.397C1136.36 238.397 1135.78 238.163 1135.33 237.694C1134.88 237.222 1134.66 236.592 1134.66 235.805V235.639C1134.66 235.115 1134.76 234.647 1134.96 234.237C1135.16 233.824 1135.44 233.502 1135.8 233.271C1136.16 233.036 1136.55 232.919 1136.97 232.919C1137.66 232.919 1138.19 233.145 1138.57 233.598C1138.95 234.05 1139.14 234.698 1139.14 235.541V235.917H1135.56C1135.58 236.438 1135.73 236.859 1136.02 237.182C1136.31 237.501 1136.68 237.66 1137.13 237.66C1137.45 237.66 1137.72 237.595 1137.94 237.465C1138.16 237.335 1138.36 237.162 1138.52 236.947L1139.07 237.377C1138.63 238.057 1137.97 238.397 1137.08 238.397ZM1136.97 233.661C1136.6 233.661 1136.3 233.795 1136.05 234.062C1135.8 234.325 1135.65 234.696 1135.59 235.175H1138.24V235.106C1138.21 234.647 1138.09 234.293 1137.87 234.042C1137.65 233.788 1137.35 233.661 1136.97 233.661ZM1141.96 234.945L1143.14 233.017H1144.19L1142.46 235.629L1144.24 238.3H1143.2L1141.98 236.322L1140.76 238.3H1139.71L1141.49 235.629L1139.76 233.017H1140.81L1141.96 234.945ZM1143.11 243.737V245.017H1144.09V245.715H1143.11V248.991C1143.11 249.203 1143.15 249.362 1143.24 249.47C1143.33 249.574 1143.48 249.626 1143.69 249.626C1143.79 249.626 1143.93 249.606 1144.12 249.567V250.3C1143.88 250.365 1143.65 250.397 1143.42 250.397C1143.02 250.397 1142.72 250.275 1142.51 250.031C1142.31 249.787 1142.2 249.44 1142.2 248.991V245.715H1141.24V245.017H1142.2V243.737H1143.11Z" fill="#A3A3A3"/>
<path d="M1211.79 231.962H1209.5V238.3H1208.57V231.962H1206.29V231.19H1211.79V231.962ZM1214.4 238.397C1213.69 238.397 1213.11 238.163 1212.66 237.694C1212.21 237.222 1211.98 236.592 1211.98 235.805V235.639C1211.98 235.115 1212.08 234.647 1212.28 234.237C1212.48 233.824 1212.76 233.502 1213.12 233.271C1213.48 233.036 1213.87 232.919 1214.29 232.919C1214.98 232.919 1215.51 233.145 1215.89 233.598C1216.27 234.05 1216.46 234.698 1216.46 235.541V235.917H1212.89C1212.9 236.438 1213.05 236.859 1213.34 237.182C1213.63 237.501 1214 237.66 1214.45 237.66C1214.77 237.66 1215.04 237.595 1215.26 237.465C1215.48 237.335 1215.68 237.162 1215.84 236.947L1216.4 237.377C1215.95 238.057 1215.29 238.397 1214.4 238.397ZM1214.29 233.661C1213.93 233.661 1213.62 233.795 1213.37 234.062C1213.13 234.325 1212.97 234.696 1212.92 235.175H1215.56V235.106C1215.54 234.647 1215.41 234.293 1215.19 234.042C1214.97 233.788 1214.67 233.661 1214.29 233.661ZM1219.29 234.945L1220.46 233.017H1221.51L1219.79 235.629L1221.57 238.3H1220.52L1219.3 236.322L1218.08 238.3H1217.03L1218.81 235.629L1217.08 233.017H1218.13L1219.29 234.945ZM1220.43 243.737V245.017H1221.42V245.715H1220.43V248.991C1220.43 249.203 1220.47 249.362 1220.56 249.47C1220.65 249.574 1220.8 249.626 1221.01 249.626C1221.11 249.626 1221.26 249.606 1221.44 249.567V250.3C1221.2 250.365 1220.97 250.397 1220.75 250.397C1220.34 250.397 1220.04 250.275 1219.83 250.031C1219.63 249.787 1219.53 249.44 1219.53 248.991V245.715H1218.56V245.017H1219.53V243.737H1220.43Z" fill="#A3A3A3"/>
<path d="M13.8554 232.342C13.8554 233.4 13.6747 234.186 13.3134 234.701C12.9521 235.215 12.3873 235.472 11.6191 235.472C10.8606 235.472 10.2991 235.222 9.93451 234.72C9.56993 234.216 9.38112 233.464 9.3681 232.464V231.258C9.3681 230.213 9.54877 229.437 9.9101 228.929C10.2714 228.421 10.8378 228.167 11.6093 228.167C12.3743 228.167 12.9374 228.413 13.2988 228.905C13.6601 229.393 13.8456 230.148 13.8554 231.17V232.342ZM12.9521 231.107C12.9521 230.342 12.8447 229.785 12.6298 229.437C12.415 229.085 12.0748 228.91 11.6093 228.91C11.1471 228.91 10.8102 229.084 10.5986 229.432C10.387 229.78 10.2779 230.316 10.2714 231.039V232.484C10.2714 233.252 10.3821 233.82 10.6035 234.188C10.8281 234.553 11.1666 234.735 11.6191 234.735C12.065 234.735 12.3954 234.562 12.6103 234.217C12.8284 233.872 12.9423 233.329 12.9521 232.586V231.107Z" fill="#A3A3A3"/>
<path d="M9.81244 220.333L10.1738 216.789H13.8163V217.624H10.9404L10.7255 219.562C11.0738 219.357 11.4693 219.254 11.912 219.254C12.5598 219.254 13.0742 219.469 13.455 219.899C13.8359 220.325 14.0263 220.903 14.0263 221.632C14.0263 222.365 13.8277 222.943 13.4306 223.366C13.0367 223.786 12.485 223.996 11.7753 223.996C11.1471 223.996 10.6344 223.821 10.2372 223.473C9.84011 223.125 9.61387 222.643 9.55853 222.028H10.413C10.4684 222.435 10.6132 222.742 10.8476 222.951C11.082 223.156 11.3912 223.258 11.7753 223.258C12.1953 223.258 12.524 223.115 12.7617 222.829C13.0025 222.542 13.123 222.147 13.123 221.642C13.123 221.167 12.9928 220.786 12.7324 220.5C12.4752 220.21 12.1318 220.065 11.7021 220.065C11.3082 220.065 10.999 220.151 10.7744 220.324L10.5351 220.519L9.81244 220.333Z" fill="#A3A3A3"/>
<path d="M12.3658 212.647H11.4576V206.626L9.63635 207.295V206.475L12.2242 205.503H12.3658V212.647ZM13.8551 221.615C13.8551 222.673 13.6744 223.459 13.3131 223.973C12.9518 224.487 12.387 224.745 11.6188 224.745C10.8603 224.745 10.2988 224.494 9.93421 223.993C9.56962 223.488 9.38082 222.736 9.3678 221.737V220.531C9.3678 219.486 9.54846 218.709 9.90979 218.202C10.2711 217.694 10.8375 217.44 11.609 217.44C12.374 217.44 12.9371 217.686 13.2985 218.177C13.6598 218.666 13.8453 219.421 13.8551 220.443V221.615ZM12.9518 220.379C12.9518 219.614 12.8444 219.058 12.6295 218.709C12.4147 218.358 12.0745 218.182 11.609 218.182C11.1468 218.182 10.8099 218.356 10.5983 218.705C10.3867 219.053 10.2776 219.588 10.2711 220.311V221.756C10.2711 222.525 10.3818 223.093 10.6032 223.46C10.8278 223.825 11.1663 224.007 11.6188 224.007C12.0647 224.007 12.3951 223.835 12.61 223.49C12.8281 223.145 12.942 222.601 12.9518 221.859V220.379Z" fill="#A3A3A3"/>
<path d="M12.3658 201.396H11.4576V195.375L9.63635 196.044V195.224L12.2242 194.252H12.3658V201.396ZM9.81213 209.832L10.1735 206.287H13.816V207.122H10.9401L10.7252 209.06C11.0735 208.855 11.469 208.752 11.9117 208.752C12.5595 208.752 13.0739 208.967 13.4547 209.397C13.8356 209.823 14.026 210.401 14.026 211.13C14.026 211.863 13.8274 212.441 13.4303 212.864C13.0364 213.284 12.4847 213.494 11.775 213.494C11.1468 213.494 10.6341 213.319 10.2369 212.971C9.8398 212.623 9.61357 212.141 9.55823 211.526H10.4127C10.4681 211.933 10.6129 212.24 10.8473 212.449C11.0817 212.654 11.3909 212.756 11.775 212.756C12.1949 212.756 12.5237 212.613 12.7614 212.327C13.0022 212.04 13.1227 211.645 13.1227 211.14C13.1227 210.665 12.9925 210.284 12.7321 209.998C12.4749 209.708 12.1315 209.563 11.7018 209.563C11.3079 209.563 10.9987 209.649 10.774 209.822L10.5348 210.017L9.81213 209.832Z" fill="#A3A3A3"/>
<path d="M14.0553 190.145H9.3971V189.495L11.858 186.761C12.2226 186.347 12.4733 186.012 12.61 185.755C12.75 185.494 12.8199 185.226 12.8199 184.949C12.8199 184.578 12.7076 184.274 12.483 184.036C12.2584 183.799 11.9589 183.68 11.5846 183.68C11.1354 183.68 10.7854 183.808 10.5348 184.065C10.2874 184.319 10.1637 184.674 10.1637 185.13H9.26038C9.26038 184.476 9.47034 183.947 9.89026 183.543C10.3134 183.139 10.8782 182.938 11.5846 182.938C12.2454 182.938 12.7679 183.112 13.152 183.46C13.5361 183.805 13.7282 184.266 13.7282 184.842C13.7282 185.542 13.2822 186.375 12.3903 187.342L10.486 189.407H14.0553V190.145ZM13.8551 199.112C13.8551 200.17 13.6744 200.956 13.3131 201.471C12.9518 201.985 12.387 202.242 11.6188 202.242C10.8603 202.242 10.2988 201.992 9.93421 201.49C9.56962 200.986 9.38082 200.234 9.3678 199.234V198.028C9.3678 196.983 9.54846 196.207 9.90979 195.699C10.2711 195.191 10.8375 194.938 11.609 194.938C12.374 194.938 12.9371 195.183 13.2985 195.675C13.6598 196.163 13.8453 196.918 13.8551 197.94V199.112ZM12.9518 197.877C12.9518 197.112 12.8444 196.555 12.6295 196.207C12.4147 195.855 12.0745 195.68 11.609 195.68C11.1468 195.68 10.8099 195.854 10.5983 196.202C10.3867 196.55 10.2776 197.086 10.2711 197.809V199.254C10.2711 200.022 10.3818 200.59 10.6032 200.958C10.8278 201.323 11.1663 201.505 11.6188 201.505C12.0647 201.505 12.3951 201.332 12.61 200.987C12.8281 200.642 12.942 200.099 12.9518 199.356V197.877Z" fill="#A3A3A3"/>
<path d="M14.0553 178.668H9.3971V178.019L11.858 175.284C12.2226 174.871 12.4733 174.535 12.61 174.278C12.75 174.018 12.8199 173.749 12.8199 173.473C12.8199 173.102 12.7076 172.797 12.483 172.56C12.2584 172.322 11.9589 172.203 11.5846 172.203C11.1354 172.203 10.7854 172.332 10.5348 172.589C10.2874 172.843 10.1637 173.198 10.1637 173.653H9.26038C9.26038 172.999 9.47034 172.47 9.89026 172.066C10.3134 171.663 10.8782 171.461 11.5846 171.461C12.2454 171.461 12.7679 171.635 13.152 171.983C13.5361 172.328 13.7282 172.789 13.7282 173.365C13.7282 174.065 13.2822 174.898 12.3903 175.865L10.486 177.931H14.0553V178.668ZM9.81213 187.104L10.1735 183.559H13.816V184.394H10.9401L10.7252 186.332C11.0735 186.127 11.469 186.024 11.9117 186.024C12.5595 186.024 13.0739 186.239 13.4547 186.669C13.8356 187.095 14.026 187.673 14.026 188.402C14.026 189.135 13.8274 189.713 13.4303 190.136C13.0364 190.556 12.4847 190.766 11.775 190.766C11.1468 190.766 10.6341 190.591 10.2369 190.243C9.8398 189.895 9.61357 189.413 9.55823 188.798H10.4127C10.4681 189.205 10.6129 189.512 10.8473 189.721C11.0817 189.926 11.3909 190.028 11.775 190.028C12.1949 190.028 12.5237 189.885 12.7614 189.599C13.0022 189.312 13.1227 188.917 13.1227 188.412C13.1227 187.937 12.9925 187.556 12.7321 187.27C12.4749 186.98 12.1315 186.835 11.7018 186.835C11.3079 186.835 10.9987 186.921 10.774 187.094L10.5348 187.289L9.81213 187.104Z" fill="#A3A3A3"/>
<path d="M10.7106 163.423H11.3893C11.8157 163.416 12.151 163.304 12.3951 163.086C12.6393 162.868 12.7614 162.573 12.7614 162.202C12.7614 161.369 12.3463 160.952 11.5162 160.952C11.1256 160.952 10.8131 161.064 10.5787 161.289C10.3476 161.51 10.2321 161.805 10.2321 162.173H9.32874C9.32874 161.61 9.53381 161.143 9.94397 160.771C10.3574 160.397 10.8815 160.21 11.5162 160.21C12.1868 160.21 12.7125 160.387 13.0934 160.742C13.4742 161.097 13.6647 161.59 13.6647 162.222C13.6647 162.531 13.5638 162.83 13.3619 163.12C13.1634 163.41 12.8916 163.626 12.5465 163.77C12.9371 163.893 13.2382 164.098 13.4498 164.385C13.6647 164.671 13.7721 165.021 13.7721 165.435C13.7721 166.073 13.5638 166.579 13.1471 166.953C12.7304 167.327 12.1884 167.515 11.5211 167.515C10.8538 167.515 10.3102 167.334 9.89026 166.973C9.47359 166.611 9.26526 166.134 9.26526 165.542H10.1735C10.1735 165.916 10.2955 166.216 10.5397 166.44C10.7838 166.665 11.111 166.777 11.5211 166.777C11.9573 166.777 12.291 166.663 12.5221 166.436C12.7532 166.208 12.8688 165.881 12.8688 165.454C12.8688 165.041 12.7418 164.723 12.4879 164.502C12.234 164.281 11.8678 164.167 11.3893 164.16H10.7106V163.423ZM13.8551 176.385C13.8551 177.443 13.6744 178.229 13.3131 178.743C12.9518 179.257 12.387 179.515 11.6188 179.515C10.8603 179.515 10.2988 179.264 9.93421 178.763C9.56962 178.258 9.38082 177.506 9.3678 176.507V175.301C9.3678 174.256 9.54846 173.479 9.90979 172.972C10.2711 172.464 10.8375 172.21 11.609 172.21C12.374 172.21 12.9371 172.456 13.2985 172.947C13.6598 173.436 13.8453 174.191 13.8551 175.213V176.385ZM12.9518 175.149C12.9518 174.384 12.8444 173.828 12.6295 173.479C12.4147 173.128 12.0745 172.952 11.609 172.952C11.1468 172.952 10.8099 173.126 10.5983 173.475C10.3867 173.823 10.2776 174.358 10.2711 175.081V176.526C10.2711 177.295 10.3818 177.863 10.6032 178.23C10.8278 178.595 11.1663 178.777 11.6188 178.777C12.0647 178.777 12.3951 178.605 12.61 178.26C12.8281 177.915 12.942 177.371 12.9518 176.629V175.149Z" fill="#A3A3A3"/>
<path d="M10.7106 152.171H11.3893C11.8157 152.165 12.151 152.053 12.3951 151.834C12.6393 151.616 12.7614 151.322 12.7614 150.951C12.7614 150.117 12.3463 149.701 11.5162 149.701C11.1256 149.701 10.8131 149.813 10.5787 150.038C10.3476 150.259 10.2321 150.554 10.2321 150.921H9.32874C9.32874 150.358 9.53381 149.891 9.94397 149.52C10.3574 149.146 10.8815 148.958 11.5162 148.958C12.1868 148.958 12.7125 149.136 13.0934 149.491C13.4742 149.846 13.6647 150.339 13.6647 150.97C13.6647 151.279 13.5638 151.579 13.3619 151.869C13.1634 152.158 12.8916 152.375 12.5465 152.518C12.9371 152.642 13.2382 152.847 13.4498 153.133C13.6647 153.42 13.7721 153.77 13.7721 154.183C13.7721 154.821 13.5638 155.327 13.1471 155.702C12.7304 156.076 12.1884 156.263 11.5211 156.263C10.8538 156.263 10.3102 156.083 9.89026 155.721C9.47359 155.36 9.26526 154.883 9.26526 154.291H10.1735C10.1735 154.665 10.2955 154.964 10.5397 155.189C10.7838 155.414 11.111 155.526 11.5211 155.526C11.9573 155.526 12.291 155.412 12.5221 155.184C12.7532 154.956 12.8688 154.629 12.8688 154.203C12.8688 153.789 12.7418 153.472 12.4879 153.25C12.234 153.029 11.8678 152.915 11.3893 152.909H10.7106V152.171ZM9.81213 164.601L10.1735 161.056H13.816V161.891H10.9401L10.7252 163.83C11.0735 163.625 11.469 163.522 11.9117 163.522C12.5595 163.522 13.0739 163.737 13.4547 164.167C13.8356 164.593 14.026 165.171 14.026 165.9C14.026 166.632 13.8274 167.21 13.4303 167.633C13.0364 168.053 12.4847 168.263 11.775 168.263C11.1468 168.263 10.6341 168.089 10.2369 167.741C9.8398 167.392 9.61357 166.911 9.55823 166.295H10.4127C10.4681 166.702 10.6129 167.01 10.8473 167.218C11.0817 167.423 11.3909 167.526 11.775 167.526C12.1949 167.526 12.5237 167.383 12.7614 167.096C13.0022 166.81 13.1227 166.414 13.1227 165.91C13.1227 165.434 12.9925 165.054 12.7321 164.767C12.4749 164.477 12.1315 164.333 11.7018 164.333C11.3079 164.333 10.9987 164.419 10.774 164.591L10.5348 164.787L9.81213 164.601Z" fill="#A3A3A3"/>
<path d="M13.2106 142.527H14.1969V143.264H13.2106V144.915H12.3024V143.264H9.06506V142.732L12.2487 137.805H13.2106V142.527ZM10.0905 142.527H12.3024V139.041L12.1949 139.236L10.0905 142.527ZM13.8551 153.882C13.8551 154.94 13.6744 155.726 13.3131 156.241C12.9518 156.755 12.387 157.012 11.6188 157.012C10.8603 157.012 10.2988 156.762 9.93421 156.26C9.56962 155.756 9.38082 155.004 9.3678 154.004V152.798C9.3678 151.753 9.54846 150.977 9.90979 150.469C10.2711 149.961 10.8375 149.708 11.609 149.708C12.374 149.708 12.9371 149.953 13.2985 150.445C13.6598 150.933 13.8453 151.688 13.8551 152.71V153.882ZM12.9518 152.647C12.9518 151.882 12.8444 151.325 12.6295 150.977C12.4147 150.625 12.0745 150.45 11.609 150.45C11.1468 150.45 10.8099 150.624 10.5983 150.972C10.3867 151.32 10.2776 151.856 10.2711 152.579V154.024C10.2711 154.792 10.3818 155.36 10.6032 155.728C10.8278 156.093 11.1663 156.275 11.6188 156.275C12.0647 156.275 12.3951 156.102 12.61 155.757C12.8281 155.412 12.942 154.869 12.9518 154.126V152.647Z" fill="#A3A3A3"/>
<path d="M13.2106 131.051H14.1969V131.788H13.2106V133.438H12.3024V131.788H9.06506V131.256L12.2487 126.329H13.2106V131.051ZM10.0905 131.051H12.3024V127.564L12.1949 127.76L10.0905 131.051ZM9.81213 141.874L10.1735 138.329H13.816V139.164H10.9401L10.7252 141.103C11.0735 140.897 11.469 140.795 11.9117 140.795C12.5595 140.795 13.0739 141.01 13.4547 141.439C13.8356 141.866 14.026 142.444 14.026 143.173C14.026 143.905 13.8274 144.483 13.4303 144.906C13.0364 145.326 12.4847 145.536 11.775 145.536C11.1468 145.536 10.6341 145.362 10.2369 145.014C9.8398 144.665 9.61357 144.184 9.55823 143.568H10.4127C10.4681 143.975 10.6129 144.283 10.8473 144.491C11.0817 144.696 11.3909 144.799 11.775 144.799C12.1949 144.799 12.5237 144.656 12.7614 144.369C13.0022 144.083 13.1227 143.687 13.1227 143.183C13.1227 142.707 12.9925 142.326 12.7321 142.04C12.4749 141.75 12.1315 141.605 11.7018 141.605C11.3079 141.605 10.9987 141.692 10.774 141.864L10.5348 142.06L9.81213 141.874Z" fill="#A3A3A3"/>
<path d="M9.81213 118.623L10.1735 115.078H13.816V115.913H10.9401L10.7252 117.851C11.0735 117.646 11.469 117.543 11.9117 117.543C12.5595 117.543 13.0739 117.758 13.4547 118.188C13.8356 118.614 14.026 119.192 14.026 119.921C14.026 120.654 13.8274 121.232 13.4303 121.655C13.0364 122.075 12.4847 122.285 11.775 122.285C11.1468 122.285 10.6341 122.111 10.2369 121.762C9.8398 121.414 9.61357 120.932 9.55823 120.317H10.4127C10.4681 120.724 10.6129 121.031 10.8473 121.24C11.0817 121.445 11.3909 121.547 11.775 121.547C12.1949 121.547 12.5237 121.404 12.7614 121.118C13.0022 120.831 13.1227 120.436 13.1227 119.931C13.1227 119.456 12.9925 119.075 12.7321 118.789C12.4749 118.499 12.1315 118.354 11.7018 118.354C11.3079 118.354 10.9987 118.44 10.774 118.613L10.5348 118.808L9.81213 118.623ZM13.8551 131.155C13.8551 132.213 13.6744 132.999 13.3131 133.513C12.9518 134.028 12.387 134.285 11.6188 134.285C10.8603 134.285 10.2988 134.034 9.93421 133.533C9.56962 133.028 9.38082 132.276 9.3678 131.277V130.071C9.3678 129.026 9.54846 128.25 9.90979 127.742C10.2711 127.234 10.8375 126.98 11.609 126.98C12.374 126.98 12.9371 127.226 13.2985 127.717C13.6598 128.206 13.8453 128.961 13.8551 129.983V131.155ZM12.9518 129.919C12.9518 129.154 12.8444 128.598 12.6295 128.25C12.4147 127.898 12.0745 127.722 11.609 127.722C11.1468 127.722 10.8099 127.896 10.5983 128.245C10.3867 128.593 10.2776 129.128 10.2711 129.851V131.296C10.2711 132.065 10.3818 132.633 10.6032 133C10.8278 133.365 11.1663 133.547 11.6188 133.547C12.0647 133.547 12.3951 133.375 12.61 133.03C12.8281 132.685 12.942 132.141 12.9518 131.399V129.919Z" fill="#A3A3A3"/>
<path d="M9.81213 107.372L10.1735 103.827H13.816V104.662H10.9401L10.7252 106.6C11.0735 106.395 11.469 106.292 11.9117 106.292C12.5595 106.292 13.0739 106.507 13.4547 106.937C13.8356 107.363 14.026 107.941 14.026 108.67C14.026 109.403 13.8274 109.981 13.4303 110.404C13.0364 110.824 12.4847 111.034 11.775 111.034C11.1468 111.034 10.6341 110.86 10.2369 110.511C9.8398 110.163 9.61357 109.681 9.55823 109.066H10.4127C10.4681 109.473 10.6129 109.78 10.8473 109.989C11.0817 110.194 11.3909 110.296 11.775 110.296C12.1949 110.296 12.5237 110.153 12.7614 109.867C13.0022 109.58 13.1227 109.185 13.1227 108.68C13.1227 108.205 12.9925 107.824 12.7321 107.538C12.4749 107.248 12.1315 107.103 11.7018 107.103C11.3079 107.103 10.9987 107.189 10.774 107.362L10.5348 107.557L9.81213 107.372ZM9.81213 119.372L10.1735 115.827H13.816V116.662H10.9401L10.7252 118.6C11.0735 118.395 11.469 118.292 11.9117 118.292C12.5595 118.292 13.0739 118.507 13.4547 118.937C13.8356 119.363 14.026 119.941 14.026 120.67C14.026 121.403 13.8274 121.981 13.4303 122.404C13.0364 122.824 12.4847 123.034 11.775 123.034C11.1468 123.034 10.6341 122.86 10.2369 122.511C9.8398 122.163 9.61357 121.681 9.55823 121.066H10.4127C10.4681 121.473 10.6129 121.78 10.8473 121.989C11.0817 122.194 11.3909 122.296 11.775 122.296C12.1949 122.296 12.5237 122.153 12.7614 121.867C13.0022 121.58 13.1227 121.185 13.1227 120.68C13.1227 120.205 12.9925 119.824 12.7321 119.538C12.4749 119.248 12.1315 119.103 11.7018 119.103C11.3079 119.103 10.9987 119.189 10.774 119.362L10.5348 119.557L9.81213 119.372Z" fill="#A3A3A3"/>
<path d="M12.942 92.5703V93.3369H12.776C12.0729 93.3499 11.513 93.5583 11.0963 93.9619C10.6796 94.3656 10.4388 94.9336 10.3737 95.666C10.748 95.2363 11.2591 95.0215 11.9069 95.0215C12.5254 95.0215 13.0185 95.2396 13.3864 95.6758C13.7574 96.112 13.943 96.6751 13.943 97.3652C13.943 98.0977 13.7428 98.6836 13.3424 99.123C12.9453 99.5625 12.4114 99.7822 11.7408 99.7822C11.0605 99.7822 10.5087 99.5218 10.0856 99.001C9.6624 98.4769 9.45081 97.8031 9.45081 96.9795V96.6328C9.45081 95.3242 9.72913 94.3249 10.2858 93.6348C10.8457 92.9414 11.6774 92.5866 12.7809 92.5703H12.942ZM11.7555 95.7734C11.4462 95.7734 11.1614 95.8662 10.901 96.0518C10.6406 96.2373 10.4599 96.4701 10.359 96.75V97.082C10.359 97.668 10.4908 98.14 10.7545 98.498C11.0182 98.8561 11.347 99.0352 11.7408 99.0352C12.1477 99.0352 12.4668 98.8854 12.6979 98.5859C12.9323 98.2865 13.0494 97.8942 13.0494 97.4092C13.0494 96.9209 12.9306 96.527 12.693 96.2275C12.4586 95.9248 12.1461 95.7734 11.7555 95.7734ZM13.8551 108.652C13.8551 109.71 13.6744 110.496 13.3131 111.011C12.9518 111.525 12.387 111.782 11.6188 111.782C10.8603 111.782 10.2988 111.532 9.93421 111.03C9.56962 110.526 9.38082 109.774 9.3678 108.774V107.568C9.3678 106.523 9.54846 105.747 9.90979 105.239C10.2711 104.731 10.8375 104.478 11.609 104.478C12.374 104.478 12.9371 104.723 13.2985 105.215C13.6598 105.703 13.8453 106.458 13.8551 107.48V108.652ZM12.9518 107.417C12.9518 106.652 12.8444 106.095 12.6295 105.747C12.4147 105.396 12.0745 105.22 11.609 105.22C11.1468 105.22 10.8099 105.394 10.5983 105.742C10.3867 106.09 10.2776 106.626 10.2711 107.349V108.794C10.2711 109.562 10.3818 110.13 10.6032 110.498C10.8278 110.863 11.1663 111.045 11.6188 111.045C12.0647 111.045 12.3951 110.872 12.61 110.527C12.8281 110.182 12.942 109.639 12.9518 108.896V107.417Z" fill="#A3A3A3"/>
<path d="M12.942 81.0942V81.8608H12.776C12.0729 81.8739 11.513 82.0822 11.0963 82.4858C10.6796 82.8895 10.4388 83.4575 10.3737 84.1899C10.748 83.7603 11.2591 83.5454 11.9069 83.5454C12.5254 83.5454 13.0185 83.7635 13.3864 84.1997C13.7574 84.6359 13.943 85.1991 13.943 85.8892C13.943 86.6216 13.7428 87.2075 13.3424 87.647C12.9453 88.0864 12.4114 88.3062 11.7408 88.3062C11.0605 88.3062 10.5087 88.0457 10.0856 87.5249C9.6624 87.0008 9.45081 86.327 9.45081 85.5034V85.1567C9.45081 83.8481 9.72913 82.8488 10.2858 82.1587C10.8457 81.4653 11.6774 81.1105 12.7809 81.0942H12.942ZM11.7555 84.2974C11.4462 84.2974 11.1614 84.3901 10.901 84.5757C10.6406 84.7612 10.4599 84.994 10.359 85.2739V85.606C10.359 86.1919 10.4908 86.6639 10.7545 87.022C11.0182 87.38 11.347 87.5591 11.7408 87.5591C12.1477 87.5591 12.4668 87.4093 12.6979 87.1099C12.9323 86.8104 13.0494 86.4181 13.0494 85.9331C13.0494 85.4448 12.9306 85.0509 12.693 84.7515C12.4586 84.4487 12.1461 84.2974 11.7555 84.2974ZM9.81213 96.644L10.1735 93.0991H13.816V93.9341H10.9401L10.7252 95.8726C11.0735 95.6675 11.469 95.5649 11.9117 95.5649C12.5595 95.5649 13.0739 95.7798 13.4547 96.2095C13.8356 96.6359 14.026 97.2137 14.026 97.9429C14.026 98.6753 13.8274 99.2531 13.4303 99.6763C13.0364 100.096 12.4847 100.306 11.775 100.306C11.1468 100.306 10.6341 100.132 10.2369 99.7837C9.8398 99.4354 9.61357 98.9536 9.55823 98.3384H10.4127C10.4681 98.7453 10.6129 99.0529 10.8473 99.2612C11.0817 99.4663 11.3909 99.5688 11.775 99.5688C12.1949 99.5688 12.5237 99.4256 12.7614 99.1392C13.0022 98.8527 13.1227 98.4572 13.1227 97.9526C13.1227 97.4774 12.9925 97.0965 12.7321 96.8101C12.4749 96.5203 12.1315 96.3755 11.7018 96.3755C11.3079 96.3755 10.9987 96.4618 10.774 96.6343L10.5348 96.8296L9.81213 96.644Z" fill="#A3A3A3"/>
<path d="M13.9869 70.3555L11.0426 76.957H10.0953L13.0299 70.5898H9.18225V69.8477H13.9869V70.3555ZM13.8551 85.9248C13.8551 86.9827 13.6744 87.7689 13.3131 88.2832C12.9518 88.7975 12.387 89.0547 11.6188 89.0547C10.8603 89.0547 10.2988 88.804 9.93421 88.3027C9.56962 87.7982 9.38082 87.0462 9.3678 86.0469V84.8408C9.3678 83.7959 9.54846 83.0195 9.90979 82.5117C10.2711 82.0039 10.8375 81.75 11.609 81.75C12.374 81.75 12.9371 81.9958 13.2985 82.4873C13.6598 82.9756 13.8453 83.7308 13.8551 84.7529V85.9248ZM12.9518 84.6895C12.9518 83.9245 12.8444 83.3678 12.6295 83.0195C12.4147 82.668 12.0745 82.4922 11.609 82.4922C11.1468 82.4922 10.8099 82.6663 10.5983 83.0146C10.3867 83.363 10.2776 83.8984 10.2711 84.6211V86.0664C10.2711 86.8346 10.3818 87.4027 10.6032 87.7705C10.8278 88.1351 11.1663 88.3174 11.6188 88.3174C12.0647 88.3174 12.3951 88.1449 12.61 87.7998C12.8281 87.4548 12.942 86.9111 12.9518 86.1689V84.6895Z" fill="#A3A3A3"/>
<path d="M13.9869 59.1045L11.0426 65.7061H10.0953L13.0299 59.3389H9.18225V58.5967H13.9869V59.1045ZM9.81213 74.1416L10.1735 70.5967H13.816V71.4316H10.9401L10.7252 73.3701C11.0735 73.165 11.469 73.0625 11.9117 73.0625C12.5595 73.0625 13.0739 73.2773 13.4547 73.707C13.8356 74.1335 14.026 74.7113 14.026 75.4404C14.026 76.1729 13.8274 76.7507 13.4303 77.1738C13.0364 77.5938 12.4847 77.8037 11.775 77.8037C11.1468 77.8037 10.6341 77.6296 10.2369 77.2812C9.8398 76.9329 9.61357 76.4512 9.55823 75.8359H10.4127C10.4681 76.2428 10.6129 76.5505 10.8473 76.7588C11.0817 76.9639 11.3909 77.0664 11.775 77.0664C12.1949 77.0664 12.5237 76.9232 12.7614 76.6367C13.0022 76.3503 13.1227 75.9548 13.1227 75.4502C13.1227 74.9749 12.9925 74.5941 12.7321 74.3076C12.4749 74.0179 12.1315 73.873 11.7018 73.873C11.3079 73.873 10.9987 73.9593 10.774 74.1318L10.5348 74.3271L9.81213 74.1416Z" fill="#A3A3A3"/>
<path d="M13.7086 49.2012C13.7086 49.556 13.6142 49.8717 13.4254 50.1484C13.2399 50.4251 12.9876 50.6416 12.6686 50.7979C13.0397 50.9574 13.3326 51.1901 13.5475 51.4961C13.7656 51.8021 13.8746 52.1488 13.8746 52.5361C13.8746 53.1514 13.6663 53.6413 13.2496 54.0059C12.8362 54.3704 12.291 54.5527 11.6139 54.5527C10.9303 54.5527 10.3818 54.3704 9.96838 54.0059C9.55823 53.638 9.35315 53.1481 9.35315 52.5361C9.35315 52.152 9.45732 51.8053 9.66565 51.4961C9.87724 51.1868 10.1686 50.9525 10.5397 50.793C10.2239 50.6367 9.9749 50.4202 9.7926 50.1436C9.61031 49.8669 9.51917 49.5527 9.51917 49.2012C9.51917 48.6022 9.71122 48.127 10.0953 47.7754C10.4795 47.4238 10.9856 47.248 11.6139 47.248C12.2389 47.248 12.7434 47.4238 13.1276 47.7754C13.5149 48.127 13.7086 48.6022 13.7086 49.2012ZM12.9713 52.5166C12.9713 52.1195 12.8444 51.7956 12.5905 51.5449C12.3398 51.2943 12.011 51.1689 11.6041 51.1689C11.1972 51.1689 10.8701 51.2926 10.6227 51.54C10.3785 51.7874 10.2565 52.113 10.2565 52.5166C10.2565 52.9202 10.3753 53.2376 10.6129 53.4688C10.8538 53.6999 11.1875 53.8154 11.6139 53.8154C12.0371 53.8154 12.3691 53.6999 12.61 53.4688C12.8509 53.2344 12.9713 52.917 12.9713 52.5166ZM11.6139 47.9902C11.2591 47.9902 10.971 48.1009 10.7496 48.3223C10.5315 48.5404 10.4225 48.8382 10.4225 49.2158C10.4225 49.5771 10.5299 49.8701 10.7448 50.0947C10.9629 50.3161 11.2526 50.4268 11.6139 50.4268C11.9752 50.4268 12.2633 50.3161 12.4782 50.0947C12.6962 49.8701 12.8053 49.5771 12.8053 49.2158C12.8053 48.8545 12.693 48.5599 12.4684 48.332C12.2438 48.1042 11.9589 47.9902 11.6139 47.9902ZM13.8551 63.4229C13.8551 64.4808 13.6744 65.2669 13.3131 65.7812C12.9518 66.2956 12.387 66.5527 11.6188 66.5527C10.8603 66.5527 10.2988 66.3021 9.93421 65.8008C9.56962 65.2962 9.38082 64.5443 9.3678 63.5449V62.3389C9.3678 61.2939 9.54846 60.5176 9.90979 60.0098C10.2711 59.502 10.8375 59.248 11.609 59.248C12.374 59.248 12.9371 59.4938 13.2985 59.9854C13.6598 60.4736 13.8453 61.2288 13.8551 62.251V63.4229ZM12.9518 62.1875C12.9518 61.4225 12.8444 60.8659 12.6295 60.5176C12.4147 60.166 12.0745 59.9902 11.609 59.9902C11.1468 59.9902 10.8099 60.1644 10.5983 60.5127C10.3867 60.861 10.2776 61.3965 10.2711 62.1191V63.5645C10.2711 64.3327 10.3818 64.9007 10.6032 65.2686C10.8278 65.6331 11.1663 65.8154 11.6188 65.8154C12.0647 65.8154 12.3951 65.6429 12.61 65.2979C12.8281 64.9528 12.942 64.4092 12.9518 63.667V62.1875Z" fill="#A3A3A3"/>
<path d="M13.7086 37.7251C13.7086 38.0799 13.6142 38.3957 13.4254 38.6724C13.2399 38.9491 12.9876 39.1655 12.6686 39.3218C13.0397 39.4813 13.3326 39.714 13.5475 40.02C13.7656 40.326 13.8746 40.6727 13.8746 41.0601C13.8746 41.6753 13.6663 42.1652 13.2496 42.5298C12.8362 42.8944 12.291 43.0767 11.6139 43.0767C10.9303 43.0767 10.3818 42.8944 9.96838 42.5298C9.55823 42.1619 9.35315 41.672 9.35315 41.0601C9.35315 40.6759 9.45732 40.3293 9.66565 40.02C9.87724 39.7108 10.1686 39.4764 10.5397 39.3169C10.2239 39.1606 9.9749 38.9442 9.7926 38.6675C9.61031 38.3908 9.51917 38.0767 9.51917 37.7251C9.51917 37.1261 9.71122 36.6509 10.0953 36.2993C10.4795 35.9478 10.9856 35.772 11.6139 35.772C12.2389 35.772 12.7434 35.9478 13.1276 36.2993C13.5149 36.6509 13.7086 37.1261 13.7086 37.7251ZM12.9713 41.0405C12.9713 40.6434 12.8444 40.3195 12.5905 40.0688C12.3398 39.8182 12.011 39.6929 11.6041 39.6929C11.1972 39.6929 10.8701 39.8166 10.6227 40.064C10.3785 40.3114 10.2565 40.6369 10.2565 41.0405C10.2565 41.4442 10.3753 41.7616 10.6129 41.9927C10.8538 42.2238 11.1875 42.3394 11.6139 42.3394C12.0371 42.3394 12.3691 42.2238 12.61 41.9927C12.8509 41.7583 12.9713 41.4409 12.9713 41.0405ZM11.6139 36.5142C11.2591 36.5142 10.971 36.6248 10.7496 36.8462C10.5315 37.0643 10.4225 37.3621 10.4225 37.7397C10.4225 38.1011 10.5299 38.394 10.7448 38.6187C10.9629 38.84 11.2526 38.9507 11.6139 38.9507C11.9752 38.9507 12.2633 38.84 12.4782 38.6187C12.6962 38.394 12.8053 38.1011 12.8053 37.7397C12.8053 37.3784 12.693 37.0838 12.4684 36.856C12.2438 36.6281 11.9589 36.5142 11.6139 36.5142ZM9.81213 51.4146L10.1735 47.8696H13.816V48.7046H10.9401L10.7252 50.6431C11.0735 50.438 11.469 50.3354 11.9117 50.3354C12.5595 50.3354 13.0739 50.5503 13.4547 50.98C13.8356 51.4064 14.026 51.9842 14.026 52.7134C14.026 53.4458 13.8274 54.0236 13.4303 54.4468C13.0364 54.8667 12.4847 55.0767 11.775 55.0767C11.1468 55.0767 10.6341 54.9025 10.2369 54.5542C9.8398 54.2059 9.61357 53.7241 9.55823 53.1089H10.4127C10.4681 53.5158 10.6129 53.8234 10.8473 54.0317C11.0817 54.2368 11.3909 54.3394 11.775 54.3394C12.1949 54.3394 12.5237 54.1961 12.7614 53.9097C13.0022 53.6232 13.1227 53.2277 13.1227 52.7231C13.1227 52.2479 12.9925 51.867 12.7321 51.5806C12.4749 51.2909 12.1315 51.146 11.7018 51.146C11.3079 51.146 10.9987 51.2323 10.774 51.4048L10.5348 51.6001L9.81213 51.4146Z" fill="#A3A3A3"/>
<path d="M12.859 28.6025C12.6702 28.8271 12.444 29.0078 12.1803 29.1445C11.9199 29.2812 11.6334 29.3496 11.3209 29.3496C10.9108 29.3496 10.5527 29.2487 10.2467 29.0469C9.94397 28.8451 9.7096 28.5618 9.54358 28.1973C9.37756 27.8294 9.29456 27.4242 9.29456 26.9814C9.29456 26.5062 9.38407 26.0781 9.56311 25.6973C9.7454 25.3164 10.0026 25.0251 10.3346 24.8232C10.6666 24.6214 11.054 24.5205 11.4967 24.5205C12.1998 24.5205 12.7532 24.7842 13.1569 25.3115C13.5638 25.8356 13.7672 26.5518 13.7672 27.46V27.7236C13.7672 29.1071 13.4938 30.1178 12.9469 30.7559C12.4 31.3906 11.5748 31.7161 10.4713 31.7324H10.2955V30.9707H10.486C11.2314 30.9577 11.8043 30.764 12.2047 30.3896C12.6051 30.012 12.8232 29.4163 12.859 28.6025ZM11.4674 28.6025C11.7701 28.6025 12.0485 28.5098 12.3024 28.3242C12.5595 28.1387 12.7467 27.9092 12.8639 27.6357V27.2744C12.8639 26.682 12.7353 26.2002 12.4782 25.8291C12.221 25.458 11.8955 25.2725 11.5016 25.2725C11.1045 25.2725 10.7854 25.4255 10.5446 25.7314C10.3037 26.0342 10.1832 26.4346 10.1832 26.9326C10.1832 27.4176 10.2988 27.818 10.5299 28.1338C10.7643 28.4463 11.0768 28.6025 11.4674 28.6025ZM13.8551 40.6953C13.8551 41.7533 13.6744 42.5394 13.3131 43.0537C12.9518 43.568 12.387 43.8252 11.6188 43.8252C10.8603 43.8252 10.2988 43.5745 9.93421 43.0732C9.56962 42.5687 9.38082 41.8167 9.3678 40.8174V39.6113C9.3678 38.5664 9.54846 37.79 9.90979 37.2822C10.2711 36.7744 10.8375 36.5205 11.609 36.5205C12.374 36.5205 12.9371 36.7663 13.2985 37.2578C13.6598 37.7461 13.8453 38.5013 13.8551 39.5234V40.6953ZM12.9518 39.46C12.9518 38.695 12.8444 38.1383 12.6295 37.79C12.4147 37.4385 12.0745 37.2627 11.609 37.2627C11.1468 37.2627 10.8099 37.4368 10.5983 37.7852C10.3867 38.1335 10.2776 38.6689 10.2711 39.3916V40.8369C10.2711 41.6051 10.3818 42.1732 10.6032 42.541C10.8278 42.9056 11.1663 43.0879 11.6188 43.0879C12.0647 43.0879 12.3951 42.9154 12.61 42.5703C12.8281 42.2253 12.942 41.6816 12.9518 40.9395V39.46Z" fill="#A3A3A3"/>
<path d="M12.859 17.3511C12.6702 17.5757 12.444 17.7563 12.1803 17.8931C11.9199 18.0298 11.6334 18.0981 11.3209 18.0981C10.9108 18.0981 10.5527 17.9972 10.2467 17.7954C9.94397 17.5936 9.7096 17.3104 9.54358 16.9458C9.37756 16.578 9.29456 16.1727 9.29456 15.73C9.29456 15.2547 9.38407 14.8267 9.56311 14.4458C9.7454 14.0649 10.0026 13.7736 10.3346 13.5718C10.6666 13.37 11.054 13.269 11.4967 13.269C12.1998 13.269 12.7532 13.5327 13.1569 14.0601C13.5638 14.5841 13.7672 15.3003 13.7672 16.2085V16.4722C13.7672 17.8556 13.4938 18.8664 12.9469 19.5044C12.4 20.1392 11.5748 20.4647 10.4713 20.481H10.2955V19.7192H10.486C11.2314 19.7062 11.8043 19.5125 12.2047 19.1382C12.6051 18.7606 12.8232 18.1649 12.859 17.3511ZM11.4674 17.3511C11.7701 17.3511 12.0485 17.2583 12.3024 17.0728C12.5595 16.8872 12.7467 16.6577 12.8639 16.3843V16.0229C12.8639 15.4305 12.7353 14.9487 12.4782 14.5776C12.221 14.2065 11.8955 14.021 11.5016 14.021C11.1045 14.021 10.7854 14.174 10.5446 14.48C10.3037 14.7827 10.1832 15.1831 10.1832 15.6812C10.1832 16.1662 10.2988 16.5666 10.5299 16.8823C10.7643 17.1948 11.0768 17.3511 11.4674 17.3511ZM9.81213 28.9116L10.1735 25.3667H13.816V26.2017H10.9401L10.7252 28.1401C11.0735 27.9351 11.469 27.8325 11.9117 27.8325C12.5595 27.8325 13.0739 28.0474 13.4547 28.4771C13.8356 28.9035 14.026 29.4813 14.026 30.2104C14.026 30.9429 13.8274 31.5207 13.4303 31.9438C13.0364 32.3638 12.4847 32.5737 11.775 32.5737C11.1468 32.5737 10.6341 32.3996 10.2369 32.0513C9.8398 31.703 9.61357 31.2212 9.55823 30.606H10.4127C10.4681 31.0129 10.6129 31.3205 10.8473 31.5288C11.0817 31.7339 11.3909 31.8364 11.775 31.8364C12.1949 31.8364 12.5237 31.6932 12.7614 31.4067C13.0022 31.1203 13.1227 30.7248 13.1227 30.2202C13.1227 29.745 12.9925 29.3641 12.7321 29.0776C12.4749 28.7879 12.1315 28.6431 11.7018 28.6431C11.3079 28.6431 10.9987 28.7293 10.774 28.9019L10.5348 29.0972L9.81213 28.9116Z" fill="#A3A3A3"/>
<path d="M6.75085 9H5.84264V2.97949L4.02135 3.64844V2.82812L6.60925 1.85645H6.75085V9ZM13.8553 5.96777C13.8553 7.02572 13.6747 7.81185 13.3133 8.32617C12.952 8.84049 12.3872 9.09766 11.619 9.09766C10.8605 9.09766 10.299 8.84701 9.93444 8.3457C9.56986 7.84115 9.38106 7.08919 9.36803 6.08984V4.88379C9.36803 3.83887 9.5487 3.0625 9.91003 2.55469C10.2714 2.04688 10.8378 1.79297 11.6092 1.79297C12.3742 1.79297 12.9374 2.03874 13.2987 2.53027C13.66 3.01855 13.8456 3.77376 13.8553 4.7959V5.96777ZM12.952 4.73242C12.952 3.96745 12.8446 3.41081 12.6298 3.0625C12.4149 2.71094 12.0747 2.53516 11.6092 2.53516C11.147 2.53516 10.8101 2.70931 10.5985 3.05762C10.3869 3.40592 10.2779 3.94141 10.2714 4.66406V6.10938C10.2714 6.8776 10.382 7.44564 10.6034 7.81348C10.828 8.17806 11.1665 8.36035 11.619 8.36035C12.065 8.36035 12.3954 8.18783 12.6102 7.84277C12.8283 7.49772 12.9423 6.9541 12.952 6.21191V4.73242ZM13.8553 17.9678C13.8553 19.0257 13.6747 19.8118 13.3133 20.3262C12.952 20.8405 12.3872 21.0977 11.619 21.0977C10.8605 21.0977 10.299 20.847 9.93444 20.3457C9.56986 19.8411 9.38106 19.0892 9.36803 18.0898V16.8838C9.36803 15.8389 9.5487 15.0625 9.91003 14.5547C10.2714 14.0469 10.8378 13.793 11.6092 13.793C12.3742 13.793 12.9374 14.0387 13.2987 14.5303C13.66 15.0186 13.8456 15.7738 13.8553 16.7959V17.9678ZM12.952 16.7324C12.952 15.9674 12.8446 15.4108 12.6298 15.0625C12.4149 14.7109 12.0747 14.5352 11.6092 14.5352C11.147 14.5352 10.8101 14.7093 10.5985 15.0576C10.3869 15.4059 10.2779 15.9414 10.2714 16.6641V18.1094C10.2714 18.8776 10.382 19.4456 10.6034 19.8135C10.828 20.1781 11.1665 20.3604 11.619 20.3604C12.065 20.3604 12.3954 20.1878 12.6102 19.8428C12.8283 19.4977 12.9423 18.9541 12.952 18.2119V16.7324Z" fill="#A3A3A3"/>
<path d="M22.905 218.454C22.905 218.454 74.278 212.574 108.527 207.146C142.775 201.719 159.899 195.839 194.148 191.316C228.397 186.793 245.521 187.697 279.77 184.531C314.018 181.365 331.143 179.104 365.391 175.485C399.64 171.867 416.764 170.058 451.013 166.439C485.261 162.821 502.386 160.559 536.634 157.393C570.883 154.227 588.007 153.323 622.256 150.609C656.504 147.895 673.629 147.895 707.877 143.824C742.126 139.754 759.25 137.04 793.499 130.255C827.747 123.471 844.872 116.234 879.12 109.902C913.369 103.57 930.493 104.022 964.742 98.5945C998.991 93.1669 1016.11 87.7394 1050.36 82.7641C1084.61 77.7888 1101.74 77.7888 1135.98 73.7181C1170.23 69.6474 1221.61 62.4106 1221.61 62.4106" stroke="#A6CEE3" stroke-width="2"/>
<path d="M22.9053 219.398C22.0055 219.398 21.1425 219.304 20.5062 219.135C19.8698 218.966 19.5122 218.737 19.512 218.498C19.5117 218.26 19.8689 218.031 20.505 217.862C21.141 217.693 22.0038 217.598 22.9036 217.598C23.8034 217.598 24.6666 217.693 25.3033 217.861C25.9399 218.03 26.298 218.259 26.2987 218.498C26.2993 218.736 25.9426 218.965 25.3069 219.134C24.6712 219.303 23.8085 219.398 22.9087 219.398H22.9053Z" fill="#A6CEE3"/>
<path d="M107.739 208.147C106.839 208.147 105.976 208.053 105.34 207.884C104.704 207.715 104.346 207.486 104.346 207.247C104.345 207.009 104.703 206.78 105.339 206.611C105.975 206.442 106.838 206.347 107.737 206.347C108.637 206.347 109.5 206.442 110.137 206.61C110.774 206.779 111.132 207.008 111.132 207.247C111.133 207.485 110.776 207.714 110.141 207.883C109.505 208.052 108.642 208.147 107.742 208.147H107.739Z" fill="#A6CEE3"/>
<path d="M193.421 192.171C192.521 192.171 191.658 192.076 191.022 191.907C190.385 191.738 190.028 191.51 190.027 191.271C190.027 191.032 190.384 190.803 191.02 190.634C191.656 190.466 192.519 190.371 193.419 190.371C194.319 190.37 195.182 190.465 195.819 190.634C196.455 190.803 196.813 191.031 196.814 191.27C196.815 191.509 196.458 191.738 195.822 191.907C195.187 192.076 194.324 192.171 193.424 192.171H193.421Z" fill="#A6CEE3"/>
<path d="M279.103 185.42C278.203 185.42 277.34 185.326 276.704 185.157C276.068 184.988 275.71 184.759 275.71 184.52C275.709 184.282 276.067 184.053 276.703 183.884C277.339 183.715 278.202 183.62 279.101 183.62C280.001 183.62 280.864 183.715 281.501 183.883C282.138 184.052 282.496 184.281 282.496 184.52C282.497 184.758 282.14 184.987 281.505 185.156C280.869 185.325 280.006 185.42 279.106 185.42H279.103Z" fill="#A6CEE3"/>
<path d="M364.785 176.419C363.885 176.419 363.022 176.324 362.386 176.155C361.75 175.987 361.392 175.758 361.392 175.519C361.392 175.28 361.749 175.051 362.385 174.883C363.021 174.714 363.884 174.619 364.783 174.619C365.683 174.619 366.546 174.713 367.183 174.882C367.82 175.051 368.178 175.279 368.179 175.518C368.179 175.757 367.822 175.986 367.187 176.155C366.551 176.324 365.688 176.419 364.789 176.419H364.785Z" fill="#A6CEE3"/>
<path d="M450.468 167.418C449.568 167.418 448.705 167.323 448.068 167.154C447.432 166.986 447.074 166.757 447.074 166.518C447.074 166.279 447.431 166.05 448.067 165.882C448.703 165.713 449.566 165.618 450.466 165.618C451.366 165.618 452.229 165.712 452.866 165.881C453.502 166.05 453.86 166.278 453.861 166.517C453.862 166.756 453.505 166.985 452.869 167.154C452.233 167.323 451.371 167.418 450.471 167.418H450.468Z" fill="#A6CEE3"/>
<path d="M536.15 158.192C535.25 158.192 534.387 158.097 533.751 157.929C533.114 157.76 532.757 157.531 532.756 157.292C532.756 157.054 533.113 156.825 533.749 156.656C534.385 156.487 535.248 156.392 536.148 156.392C537.048 156.392 537.911 156.487 538.548 156.655C539.184 156.824 539.542 157.053 539.543 157.292C539.544 157.53 539.187 157.759 538.551 157.928C537.916 158.097 537.053 158.192 536.153 158.192H536.15Z" fill="#A6CEE3"/>
<path d="M621.832 151.441C620.932 151.441 620.069 151.347 619.432 151.178C618.796 151.009 618.438 150.78 618.438 150.541C618.438 150.303 618.795 150.074 619.431 149.905C620.067 149.736 620.93 149.641 621.83 149.641C622.73 149.641 623.593 149.736 624.23 149.904C624.866 150.073 625.224 150.302 625.225 150.541C625.226 150.779 624.869 151.008 624.233 151.177C623.597 151.346 622.735 151.441 621.835 151.441H621.832Z" fill="#A6CEE3"/>
<path d="M707.514 144.69C706.614 144.69 705.751 144.596 705.115 144.427C704.478 144.258 704.121 144.029 704.12 143.79C704.12 143.552 704.477 143.323 705.113 143.154C705.749 142.985 706.612 142.89 707.512 142.89C708.412 142.89 709.275 142.985 709.912 143.153C710.548 143.322 710.906 143.551 710.907 143.79C710.908 144.028 710.551 144.257 709.915 144.426C709.28 144.595 708.417 144.69 707.517 144.69H707.514Z" fill="#A6CEE3"/>
<path d="M793.196 131.189C792.296 131.189 791.433 131.095 790.797 130.926C790.161 130.757 789.803 130.528 789.803 130.289C789.803 130.051 790.16 129.822 790.796 129.653C791.432 129.484 792.295 129.389 793.194 129.389C794.094 129.389 794.957 129.484 795.594 129.652C796.231 129.821 796.589 130.05 796.589 130.289C796.59 130.527 796.233 130.756 795.598 130.925C794.962 131.094 794.099 131.189 793.2 131.189H793.196Z" fill="#A6CEE3"/>
<path d="M878.878 110.712C877.978 110.712 877.115 110.617 876.479 110.448C875.843 110.28 875.485 110.051 875.485 109.812C875.485 109.573 875.842 109.344 876.478 109.175C877.114 109.007 877.977 108.912 878.877 108.912C879.776 108.912 880.64 109.006 881.276 109.175C881.913 109.344 882.271 109.572 882.272 109.811C882.272 110.05 881.915 110.279 881.28 110.448C880.644 110.617 879.781 110.712 878.882 110.712H878.878Z" fill="#A6CEE3"/>
<path d="M964.561 99.4608C963.661 99.4608 962.798 99.366 962.161 99.1973C961.525 99.0285 961.167 98.7996 961.167 98.561C961.167 98.3223 961.524 98.0934 962.16 97.9245C962.796 97.7557 963.659 97.6608 964.559 97.6606C965.459 97.6605 966.322 97.7552 966.959 97.9239C967.595 98.0925 967.953 98.3214 967.954 98.5601C967.955 98.7987 967.598 99.0277 966.962 99.1967C966.326 99.3656 965.464 99.4606 964.564 99.4608H964.561Z" fill="#A6CEE3"/>
<path d="M1050.24 83.7089C1049.34 83.7089 1048.48 83.6141 1047.84 83.4453C1047.21 83.2766 1046.85 83.0477 1046.85 82.809C1046.85 82.5703 1047.21 82.3414 1047.84 82.1726C1048.48 82.0037 1049.34 81.9088 1050.24 81.9087C1051.14 81.9086 1052 82.0033 1052.64 82.1719C1053.28 82.3406 1053.63 82.5694 1053.64 82.8081C1053.64 83.0468 1053.28 83.2758 1052.64 83.4447C1052.01 83.6136 1051.15 83.7086 1050.25 83.7089H1050.24Z" fill="#A6CEE3"/>
<path d="M1135.92 74.7079C1135.02 74.7079 1134.16 74.6131 1133.53 74.4444C1132.89 74.2756 1132.53 74.0467 1132.53 73.808C1132.53 73.5694 1132.89 73.3404 1133.52 73.1716C1134.16 73.0028 1135.02 72.9078 1135.92 72.9077C1136.82 72.9076 1137.69 73.0023 1138.32 73.1709C1138.96 73.3396 1139.32 73.5685 1139.32 73.8071C1139.32 74.0458 1138.96 74.2748 1138.33 74.4437C1137.69 74.6126 1136.83 74.7077 1135.93 74.7079H1135.92Z" fill="#A6CEE3"/>
<path d="M1221.61 63.2318C1220.71 63.2318 1219.84 63.137 1219.21 62.9683C1218.57 62.7995 1218.21 62.5706 1218.21 62.332C1218.21 62.0933 1218.57 61.8643 1219.21 61.6955C1219.84 61.5267 1220.71 61.4318 1221.61 61.4316C1222.5 61.4315 1223.37 61.5262 1224 61.6949C1224.64 61.8635 1225 62.0924 1225 62.3311C1225 62.5697 1224.64 62.7987 1224.01 62.9676C1223.37 63.1366 1222.51 63.2316 1221.61 63.2318H1221.61Z" fill="#A6CEE3"/>
<path d="M22.905 211.669C22.905 211.669 74.278 206.694 108.527 202.623C142.775 198.553 159.899 196.291 194.148 191.316C228.397 186.341 245.521 184.079 279.77 177.747C314.018 171.415 331.143 165.535 365.391 159.655C399.64 153.775 416.764 152.87 451.013 148.347C485.261 143.824 502.386 142.468 536.634 137.04C570.883 131.612 588.007 127.089 622.256 121.21C656.504 115.33 673.629 113.068 707.877 107.641C742.126 102.213 759.25 100.404 793.499 94.0716C827.747 87.7395 844.872 82.7642 879.12 75.9797C913.369 69.1952 930.493 66.4814 964.742 60.1493C998.991 53.8171 1016.11 50.1987 1050.36 44.3188C1084.61 38.4389 1101.74 35.7251 1135.98 30.7498C1170.23 25.7746 1221.61 19.4424 1221.61 19.4424" stroke="#1F78B4" stroke-width="2"/>
<path d="M22.9053 212.648C22.0055 212.648 21.1425 212.553 20.5062 212.384C19.8698 212.216 19.5122 211.987 19.512 211.748C19.5117 211.509 19.8689 211.28 20.505 211.112C21.141 210.943 22.0038 210.848 22.9036 210.848C23.8034 210.848 24.6666 210.942 25.3033 211.111C25.9399 211.28 26.298 211.508 26.2987 211.747C26.2993 211.986 25.9426 212.215 25.3069 212.384C24.6712 212.553 23.8085 212.648 22.9087 212.648H22.9053Z" fill="#1F78B4"/>
<path d="M107.739 203.422C106.839 203.422 105.976 203.327 105.34 203.158C104.704 202.989 104.346 202.761 104.346 202.522C104.345 202.283 104.703 202.054 105.339 201.885C105.975 201.717 106.838 201.622 107.737 201.622C108.637 201.621 109.5 201.716 110.137 201.885C110.774 202.053 111.132 202.282 111.132 202.521C111.133 202.76 110.776 202.989 110.141 203.158C109.505 203.327 108.642 203.422 107.742 203.422H107.739Z" fill="#1F78B4"/>
<path d="M193.421 192.171C192.521 192.171 191.658 192.076 191.022 191.907C190.385 191.738 190.028 191.51 190.027 191.271C190.027 191.032 190.384 190.803 191.02 190.634C191.656 190.466 192.519 190.371 193.419 190.371C194.319 190.37 195.182 190.465 195.819 190.634C196.455 190.803 196.813 191.031 196.814 191.27C196.815 191.509 196.458 191.738 195.822 191.907C195.187 192.076 194.324 192.171 193.424 192.171H193.421Z" fill="#1F78B4"/>
<path d="M279.103 178.669C278.203 178.669 277.34 178.574 276.704 178.405C276.068 178.237 275.71 178.008 275.71 177.769C275.709 177.53 276.067 177.301 276.703 177.133C277.339 176.964 278.202 176.869 279.101 176.869C280.001 176.869 280.864 176.963 281.501 177.132C282.138 177.301 282.496 177.529 282.496 177.768C282.497 178.007 282.14 178.236 281.505 178.405C280.869 178.574 280.006 178.669 279.106 178.669H279.103Z" fill="#1F78B4"/>
<path d="M364.785 160.667C363.885 160.667 363.022 160.573 362.386 160.404C361.75 160.235 361.392 160.006 361.392 159.768C361.392 159.529 361.749 159.3 362.385 159.131C363.021 158.962 363.884 158.867 364.783 158.867C365.683 158.867 366.546 158.962 367.183 159.13C367.82 159.299 368.178 159.528 368.179 159.767C368.179 160.005 367.822 160.234 367.187 160.403C366.551 160.572 365.688 160.667 364.789 160.667H364.785Z" fill="#1F78B4"/>
<path d="M450.468 149.191C449.568 149.191 448.705 149.096 448.068 148.927C447.432 148.759 447.074 148.53 447.074 148.291C447.074 148.052 447.431 147.823 448.067 147.654C448.703 147.486 449.566 147.391 450.466 147.391C451.366 147.391 452.229 147.485 452.866 147.654C453.502 147.823 453.86 148.051 453.861 148.29C453.862 148.529 453.505 148.758 452.869 148.927C452.233 149.096 451.371 149.191 450.471 149.191H450.468Z" fill="#1F78B4"/>
<path d="M536.15 137.94C535.25 137.94 534.387 137.845 533.751 137.676C533.114 137.508 532.757 137.279 532.756 137.04C532.756 136.801 533.113 136.572 533.749 136.404C534.385 136.235 535.248 136.14 536.148 136.14C537.048 136.14 537.911 136.234 538.548 136.403C539.184 136.572 539.542 136.8 539.543 137.039C539.544 137.278 539.187 137.507 538.551 137.676C537.916 137.845 537.053 137.94 536.153 137.94H536.15Z" fill="#1F78B4"/>
<path d="M621.832 122.188C620.932 122.188 620.069 122.093 619.432 121.924C618.796 121.756 618.438 121.527 618.438 121.288C618.438 121.049 618.795 120.82 619.431 120.652C620.067 120.483 620.93 120.388 621.83 120.388C622.73 120.388 623.593 120.482 624.23 120.651C624.866 120.82 625.224 121.048 625.225 121.287C625.226 121.526 624.869 121.755 624.233 121.924C623.597 122.093 622.735 122.188 621.835 122.188H621.832Z" fill="#1F78B4"/>
<path d="M707.514 108.461C706.614 108.461 705.751 108.367 705.115 108.198C704.478 108.029 704.121 107.8 704.12 107.561C704.12 107.323 704.477 107.094 705.113 106.925C705.749 106.756 706.612 106.661 707.512 106.661C708.412 106.661 709.275 106.756 709.912 106.924C710.548 107.093 710.906 107.322 710.907 107.561C710.908 107.799 710.551 108.028 709.915 108.197C709.28 108.366 708.417 108.461 707.517 108.461H707.514Z" fill="#1F78B4"/>
<path d="M793.196 94.9604C792.296 94.9604 791.433 94.8655 790.797 94.6968C790.161 94.528 789.803 94.2992 789.803 94.0605C789.803 93.8218 790.16 93.5929 790.796 93.424C791.432 93.2552 792.295 93.1603 793.194 93.1602C794.094 93.16 794.957 93.2547 795.594 93.4234C796.231 93.5921 796.589 93.8209 796.589 94.0596C796.59 94.2983 796.233 94.5272 795.598 94.6962C794.962 94.8651 794.099 94.9601 793.2 94.9604H793.196Z" fill="#1F78B4"/>
<path d="M878.878 76.9584C877.978 76.9584 877.115 76.8636 876.479 76.6948C875.843 76.5261 875.485 76.2972 875.485 76.0585C875.485 75.8198 875.842 75.5909 876.478 75.4221C877.114 75.2532 877.977 75.1583 878.877 75.1582C879.776 75.1581 880.64 75.2528 881.276 75.4214C881.913 75.5901 882.271 75.8189 882.272 76.0576C882.272 76.2963 881.915 76.5253 881.28 76.6942C880.644 76.8631 879.781 76.9582 878.882 76.9584H878.878Z" fill="#1F78B4"/>
<path d="M964.561 60.9813C963.661 60.9813 962.798 60.8865 962.161 60.7178C961.525 60.549 961.167 60.3202 961.167 60.0815C961.167 59.8428 961.524 59.6139 962.16 59.445C962.796 59.2762 963.659 59.1813 964.559 59.1812C965.459 59.181 966.322 59.2757 966.959 59.4444C967.595 59.6131 967.953 59.8419 967.954 60.0806C967.955 60.3193 967.598 60.5482 966.962 60.7172C966.326 60.8861 965.464 60.9811 964.564 60.9813H964.561Z" fill="#1F78B4"/>
<path d="M1050.24 45.2299C1049.34 45.2299 1048.48 45.1351 1047.84 44.9663C1047.21 44.7976 1046.85 44.5687 1046.85 44.33C1046.85 44.0913 1047.21 43.8624 1047.84 43.6936C1048.48 43.5247 1049.34 43.4298 1050.24 43.4297C1051.14 43.4296 1052 43.5243 1052.64 43.6929C1053.28 43.8616 1053.63 44.0904 1053.64 44.3291C1053.64 44.5678 1053.28 44.7968 1052.64 44.9657C1052.01 45.1346 1051.15 45.2296 1050.25 45.2299H1050.24Z" fill="#1F78B4"/>
<path d="M1135.92 31.7284C1135.02 31.7284 1134.16 31.6336 1133.53 31.4649C1132.89 31.2961 1132.53 31.0672 1132.53 30.8285C1132.53 30.5899 1132.89 30.3609 1133.52 30.1921C1134.16 30.0233 1135.02 29.9283 1135.92 29.9282C1136.82 29.9281 1137.69 30.0228 1138.32 30.1915C1138.96 30.3601 1139.32 30.589 1139.32 30.8276C1139.32 31.0663 1138.96 31.2953 1138.33 31.4642C1137.69 31.6331 1136.83 31.7282 1135.93 31.7284H1135.92Z" fill="#1F78B4"/>
<path d="M1221.61 20.2523C1220.71 20.2523 1219.84 20.1575 1219.21 19.9888C1218.57 19.82 1218.21 19.5912 1218.21 19.3525C1218.21 19.1138 1218.57 18.8849 1219.21 18.716C1219.84 18.5472 1220.71 18.4523 1221.61 18.4521C1222.5 18.452 1223.37 18.5467 1224 18.7154C1224.64 18.8841 1225 19.1129 1225 19.3516C1225 19.5903 1224.64 19.8192 1224.01 19.9882C1223.37 20.1571 1222.51 20.2521 1221.61 20.2523H1221.61Z" fill="#1F78B4"/>
</svg>
