<svg width="185" height="52" viewBox="0 0 185 52" fill="none" xmlns="http://www.w3.org/2000/svg">
<path d="M0 10.1782H6.67504V14.1549H7.05376C7.96901 12.5453 8.86849 11.3618 9.75218 10.6043C10.6674 9.84686 11.8036 9.46813 13.1607 9.46813C13.7288 9.46813 14.2022 9.53125 14.5809 9.6575L13.8708 16.8533C13.0502 16.6324 12.3875 16.5219 11.8825 16.5219C11.1566 16.5219 10.5096 16.6639 9.94154 16.948C9.40502 17.232 8.91583 17.6107 8.47398 18.0841C8.0637 18.5575 7.46405 19.2834 6.67504 20.2618V34.5587H0V10.1782Z" fill="#202020"/>
<path d="M29.4381 35.2688C25.4931 35.2688 22.3844 34.1326 20.112 31.8603C17.8712 29.5879 16.7508 26.4319 16.7508 22.3921C16.7508 19.7726 17.24 17.5003 18.2184 15.5751C19.1968 13.6183 20.5696 12.1192 22.337 11.0777C24.136 10.0362 26.2348 9.51547 28.6333 9.51547C32.1681 9.51547 34.8823 10.6517 36.7759 12.924C38.6696 15.1964 39.6164 18.4786 39.6164 22.7709C39.6164 23.4968 39.6006 24.0333 39.569 24.3804H23.4732C23.7888 26.0532 24.5147 27.3314 25.6509 28.215C26.7871 29.0672 28.3177 29.4932 30.2429 29.4932C31.4107 29.4932 32.6257 29.3512 33.8882 29.0672C35.1506 28.7516 36.2552 28.3413 37.202 27.8363L38.2908 33.1858C37.0284 33.8486 35.624 34.3535 34.0775 34.7007C32.5626 35.0794 31.0162 35.2688 29.4381 35.2688ZM33.2254 19.3623C33.1307 18.0052 32.6573 16.9322 31.8052 16.1432C30.953 15.3226 29.8169 14.9123 28.3966 14.9123C27.0395 14.9123 25.9191 15.3068 25.0355 16.0958C24.1833 16.8848 23.6468 17.9737 23.4259 19.3623H33.2254Z" fill="#202020"/>
<path d="M44.6097 10.1782H51.1427V14.3916C52.1527 12.7189 53.3204 11.488 54.6459 10.699C55.9715 9.90998 57.5179 9.51547 59.2853 9.51547C61.9048 9.51547 63.9563 10.3045 65.4396 11.8825C66.923 13.429 67.6646 15.5909 67.6646 18.3682V34.5587H60.9896V19.4097C60.9896 18.1473 60.674 17.1689 60.0428 16.4746C59.4116 15.7487 58.5594 15.3857 57.4864 15.3857C56.224 15.3857 55.0247 15.8591 53.8885 16.8059C52.7523 17.7528 51.8844 18.952 51.2847 20.4038V34.5587H44.6097V10.1782Z" fill="#202020"/>
<path d="M82.0817 35.2688C79.8094 35.2688 78.042 34.7007 76.7796 33.5645C75.5487 32.3968 74.9333 30.7557 74.9333 28.6411V15.9065H71.146V10.1782H74.9333V4.97077C77.1741 4.59205 79.3833 4.308 81.561 4.11864V10.1782H87.7153V15.9065H81.561V27.4103C81.561 28.073 81.7503 28.578 82.1291 28.9252C82.5393 29.2723 83.1074 29.4459 83.8333 29.4459C84.717 29.4459 85.7269 29.2408 86.8631 28.8305L88.3307 33.8486C86.3108 34.7954 84.2278 35.2688 82.0817 35.2688Z" fill="#202020"/>
<path d="M103.171 35.2688C100.71 35.2688 98.5319 34.7323 96.6382 33.6592C94.7762 32.5862 93.3244 31.087 92.2829 29.1619C91.2414 27.2051 90.7206 24.9485 90.7206 22.3921C90.7206 19.8357 91.2256 17.5949 92.2355 15.6698C93.277 13.713 94.7288 12.1981 96.5909 11.1251C98.4845 10.052 100.662 9.51547 103.124 9.51547C105.586 9.51547 107.748 10.052 109.61 11.1251C111.503 12.1666 112.955 13.6499 113.965 15.5751C115.006 17.5003 115.527 19.7253 115.527 22.2501C115.527 24.8065 115.006 27.0789 113.965 29.0672C112.955 31.0239 111.503 32.5546 109.61 33.6592C107.748 34.7323 105.601 35.2688 103.171 35.2688ZM103.124 29.4932C104.828 29.4932 106.185 28.8463 107.195 27.5523C108.237 26.2267 108.757 24.4909 108.757 22.3448C108.757 20.1987 108.237 18.4944 107.195 17.232C106.185 15.938 104.828 15.291 103.124 15.291C101.42 15.291 100.047 15.938 99.0053 17.232C97.9953 18.4944 97.4904 20.1987 97.4904 22.3448C97.4904 24.4909 97.9953 26.2267 99.0053 27.5523C100.047 28.8463 101.42 29.4932 103.124 29.4932Z" fill="#202020"/>
<path d="M131.973 35.2688C129.512 35.2688 127.334 34.7323 125.44 33.6592C123.578 32.5862 122.126 31.087 121.085 29.1619C120.043 27.2051 119.523 24.9485 119.523 22.3921C119.523 19.8357 120.028 17.5949 121.038 15.6698C122.079 13.713 123.531 12.1981 125.393 11.1251C127.287 10.052 129.464 9.51547 131.926 9.51547C134.388 9.51547 136.55 10.052 138.412 11.1251C140.305 12.1666 141.757 13.6499 142.767 15.5751C143.808 17.5003 144.329 19.7253 144.329 22.2501C144.329 24.8065 143.808 27.0789 142.767 29.0672C141.757 31.0239 140.305 32.5546 138.412 33.6592C136.55 34.7323 134.403 35.2688 131.973 35.2688ZM131.926 29.4932C133.63 29.4932 134.987 28.8463 135.997 27.5523C137.039 26.2267 137.559 24.4909 137.559 22.3448C137.559 20.1987 137.039 18.4944 135.997 17.232C134.987 15.938 133.63 15.291 131.926 15.291C130.222 15.291 128.849 15.938 127.807 17.232C126.797 18.4944 126.292 20.1987 126.292 22.3448C126.292 24.4909 126.797 26.2267 127.807 27.5523C128.849 28.8463 130.222 29.4932 131.926 29.4932Z" fill="#202020"/>
<path d="M147.264 28.8305H151.572V5.68088H147.5V0H158.247V28.8305H162.555V34.5587H147.264V28.8305Z" fill="#202020"/>
<path d="M173.991 35.2688C172.445 35.2688 170.945 35.111 169.494 34.7954C168.073 34.4798 166.858 34.0537 165.848 33.5172L166.464 27.8363C167.537 28.4991 168.72 29.0356 170.014 29.4459C171.308 29.8562 172.523 30.0613 173.66 30.0613C174.733 30.0613 175.632 29.872 176.358 29.4932C177.084 29.083 177.447 28.4991 177.447 27.7416C177.447 27.142 177.194 26.6844 176.689 26.3688C176.185 26.0216 175.222 25.5955 173.802 25.0906L172.523 24.6172C171.166 24.1122 170.062 23.6388 169.21 23.1969C168.358 22.7235 167.584 22.0134 166.89 21.0666C166.196 20.1198 165.848 18.8731 165.848 17.3267C165.848 14.865 166.764 12.9556 168.594 11.5985C170.456 10.2098 172.871 9.51547 175.837 9.51547C178.173 9.51547 180.635 9.9731 183.222 10.8884L182.323 16.5219C181.408 15.9854 180.366 15.5593 179.199 15.2437C178.062 14.8965 176.989 14.7229 175.979 14.7229C174.938 14.7229 174.102 14.8965 173.47 15.2437C172.871 15.5909 172.571 16.0958 172.571 16.7586C172.571 17.3898 172.823 17.8632 173.328 18.1788C173.833 18.4944 174.685 18.8574 175.885 19.2677C176.831 19.6148 177.384 19.82 177.542 19.8831C178.867 20.4196 179.972 20.9404 180.855 21.4453C181.739 21.9503 182.512 22.7077 183.175 23.7177C183.838 24.6961 184.169 25.9585 184.169 27.5049C184.169 30.0929 183.238 32.0339 181.376 33.3278C179.514 34.6218 177.052 35.2688 173.991 35.2688Z" fill="#202020"/>
<path d="M88.9705 44.0268L93.4554 39.2927C102.674 44.7743 108.405 45.5218 118.87 45.5218C129.335 45.5218 134.318 44.5251 144.533 39.0436L148.52 44.0268C148.52 44.0268 138.554 52 118.87 52C99.1861 52 88.9705 44.0268 88.9705 44.0268Z" fill="#202020"/>
</svg>
