<svg width="458" height="91" viewBox="0 0 458 91" fill="none" xmlns="http://www.w3.org/2000/svg">
<path d="M0 25.0431H16.4236V34.8274H17.3554C19.6074 30.8671 21.8205 27.9551 23.9948 26.0914C26.2467 24.2277 29.0422 23.2959 32.3813 23.2959C33.779 23.2959 34.9438 23.4512 35.8757 23.7618L34.1285 41.4667C32.1095 40.9231 30.4788 40.6513 29.2363 40.6513C27.4503 40.6513 25.8584 41.0008 24.4607 41.6997C23.1406 42.3985 21.937 43.3304 20.8498 44.4952C19.8403 45.66 18.3649 47.446 16.4236 49.8532V85.03H0V25.0431Z" fill="black"/>
<path d="M72.4311 86.7772C62.7245 86.7772 55.0757 83.9817 49.4847 78.3907C43.9713 72.7997 41.2146 65.0344 41.2146 55.0948C41.2146 48.6496 42.4182 43.0586 44.8255 38.3218C47.2327 33.5073 50.6106 29.8187 54.9592 27.2562C59.3854 24.6937 64.5493 23.4124 70.451 23.4124C79.1481 23.4124 85.8263 26.2079 90.4854 31.7989C95.1446 37.3899 97.4742 45.4658 97.4742 56.0266C97.4742 57.8127 97.4354 59.1328 97.3577 59.9869H57.7547C58.5312 64.1025 60.3173 67.2475 63.1128 69.4218C65.9083 71.5184 69.6744 72.5667 74.4113 72.5667C77.2844 72.5667 80.2741 72.2173 83.3802 71.5184C86.4863 70.7419 89.2042 69.7324 91.5338 68.4899L94.2128 81.6521C91.1067 83.2828 87.6511 84.5253 83.8461 85.3795C80.1188 86.3113 76.3138 86.7772 72.4311 86.7772ZM81.7495 47.6401C81.5165 44.301 80.3517 41.6608 78.2551 39.7195C76.1585 37.7005 73.363 36.691 69.8686 36.691C66.5295 36.691 63.7728 37.6617 61.5985 39.603C59.5019 41.5444 58.1818 44.2234 57.6382 47.6401H81.7495Z" fill="black"/>
<path d="M109.76 25.0431H125.834V35.4098C128.319 31.2942 131.192 28.2657 134.454 26.3244C137.715 24.383 141.52 23.4124 145.869 23.4124C152.314 23.4124 157.361 25.3537 161.011 29.2364C164.661 33.0413 166.486 38.3606 166.486 45.194V85.03H150.062V47.7566C150.062 44.6505 149.285 42.2432 147.732 40.5349C146.179 38.7488 144.083 37.8558 141.442 37.8558C138.336 37.8558 135.386 39.0206 132.59 41.3502C129.795 43.6798 127.659 46.6306 126.184 50.2027V85.03H109.76V25.0431Z" fill="black"/>
<path d="M201.958 86.7772C196.367 86.7772 192.019 85.3795 188.912 82.584C185.884 79.7108 184.37 75.6728 184.37 70.4701V39.1371H175.051V25.0431H184.37V12.2303C189.883 11.2985 195.319 10.5996 200.677 10.1337V25.0431H215.819V39.1371H200.677V67.4416C200.677 69.0723 201.143 70.3148 202.075 71.169C203.084 72.0232 204.482 72.4502 206.268 72.4502C208.442 72.4502 210.927 71.9455 213.723 70.936L217.333 83.2828C212.364 85.6124 207.239 86.7772 201.958 86.7772Z" fill="black"/>
<path d="M366.202 70.936H376.802V13.9775H366.785V0H393.226V70.936H403.825V85.03H366.202V70.936Z" fill="black"/>
<path d="M431.964 86.7772C428.159 86.7772 424.471 86.389 420.899 85.6124C417.404 84.8359 414.415 83.7876 411.93 82.4675L413.444 68.4899C416.084 70.1207 418.996 71.4408 422.18 72.4502C425.364 73.4597 428.353 73.9645 431.149 73.9645C433.789 73.9645 436.002 73.4986 437.788 72.5667C439.574 71.5572 440.467 70.1207 440.467 68.257C440.467 66.7816 439.846 65.6556 438.603 64.8791C437.361 64.0249 434.993 62.9766 431.498 61.7341L428.353 60.5693C425.014 59.3269 422.296 58.1621 420.2 57.0749C418.103 55.9102 416.201 54.163 414.492 51.8334C412.784 49.5038 411.93 46.4365 411.93 42.6315C411.93 36.5746 414.182 31.8766 418.685 28.5375C423.267 25.1207 429.207 23.4124 436.507 23.4124C442.253 23.4124 448.31 24.5383 454.678 26.7903L452.465 40.6513C450.213 39.3312 447.65 38.2829 444.777 37.5064C441.981 36.6522 439.341 36.2251 436.856 36.2251C434.294 36.2251 432.236 36.6522 430.683 37.5064C429.207 38.3606 428.47 39.603 428.47 41.2337C428.47 42.7868 429.091 43.9516 430.333 44.7281C431.576 45.5047 433.672 46.3977 436.623 47.4072C438.953 48.2613 440.312 48.7661 440.7 48.9214C443.962 50.2415 446.679 51.5228 448.854 52.7652C451.028 54.0077 452.93 55.8713 454.561 58.3562C456.192 60.7635 457.007 63.8696 457.007 67.6746C457.007 74.0421 454.716 78.8178 450.135 82.0016C445.553 85.1853 439.496 86.7772 431.964 86.7772Z" fill="black"/>
<g clip-path="url(#clip0)">
<path d="M290.701 55.3846L274.567 27.4386C274.168 26.7484 273.432 26.3232 272.635 26.3232H240.365C239.568 26.3232 238.832 26.7484 238.433 27.4386L222.299 55.3846C221.9 56.0748 221.9 56.9252 222.299 57.6153L238.434 85.5614C238.832 86.2515 239.568 86.6767 240.365 86.6767H272.635C273.432 86.6767 274.168 86.2515 274.567 85.5614L290.701 57.6153C291.1 56.9252 291.1 56.0748 290.701 55.3846ZM256.5 71.9657C247.972 71.9657 241.034 65.0278 241.034 56.5C241.034 47.9721 247.972 41.0343 256.5 41.0343C265.028 41.0343 271.966 47.9721 271.966 56.5C271.966 65.0278 265.028 71.9657 256.5 71.9657Z" fill="black"/>
</g>
<g clip-path="url(#clip1)">
<path d="M359.701 55.3846L343.567 27.4386C343.168 26.7484 342.432 26.3232 341.635 26.3232H309.365C308.568 26.3232 307.832 26.7484 307.433 27.4386L291.299 55.3846C290.9 56.0748 290.9 56.9252 291.299 57.6153L307.434 85.5614C307.832 86.2515 308.568 86.6767 309.365 86.6767H341.635C342.432 86.6767 343.168 86.2515 343.567 85.5614L359.701 57.6153C360.1 56.9252 360.1 56.0748 359.701 55.3846ZM325.5 71.9657C316.972 71.9657 310.034 65.0278 310.034 56.5C310.034 47.9721 316.972 41.0343 325.5 41.0343C334.028 41.0343 340.966 47.9721 340.966 56.5C340.966 65.0278 334.028 71.9657 325.5 71.9657Z" fill="black"/>
</g>
<defs>
<clipPath id="clip0">
<rect width="69" height="69" fill="white" transform="translate(222 22)"/>
</clipPath>
<clipPath id="clip1">
<rect width="69" height="69" fill="white" transform="translate(291 22)"/>
</clipPath>
</defs>
</svg>
