<svg width="1090" height="293" viewBox="0 0 1090 293" fill="none" xmlns="http://www.w3.org/2000/svg">
<path d="M870.668 44.4453L845.18 18.957C841.498 15.2754 835.834 15.2754 832.152 18.957L819.408 31.7012C811.195 40.1973 809.496 52.375 814.311 62.2871L784.291 92.5898L771.547 79.8457C767.865 76.1641 762.201 76.1641 758.52 79.8457L739.262 98.8203C725.102 112.98 726.518 150.08 733.031 156.311C739.262 162.824 776.361 164.24 790.521 150.08L809.779 130.822C813.461 127.141 813.461 121.477 809.779 118.078L797.035 105.334L827.055 75.3145C837.25 80.1289 849.428 78.4297 857.641 70.2168L870.385 57.4727C874.35 53.791 874.35 48.127 870.668 44.4453ZM845.18 57.4727C841.498 60.8711 835.834 60.8711 832.152 57.4727C828.754 53.791 828.754 48.127 832.152 44.4453L838.666 38.2148L851.41 50.959L845.18 57.4727Z" fill="black" fill-opacity="0.06"/>
<path d="M240.297 55.916L233.783 49.4023C232.367 48.2695 230.668 47.4199 228.969 47.4199C227.27 47.4199 225.57 48.2695 224.154 49.4023L222.455 51.1016L216.791 45.4375C218.207 38.6406 216.225 31.8438 211.41 27.0293L198.666 14.2852C189.887 5.22266 177.709 0.125 165.248 0.125C152.504 0.125 140.609 5.22266 131.547 14.2852L129.281 16.5508L156.469 30.1445V33.8262C156.469 39.207 158.734 44.5879 162.416 48.2695L176.293 62.1465C180.258 66.1113 185.355 68.0938 190.736 68.0938C192.152 68.0938 193.285 68.0938 194.701 67.8105L200.365 73.4746L198.666 75.1738C196.117 77.7227 196.117 81.9707 198.666 84.8027L205.18 91.0332C206.596 92.4492 208.295 93.0156 209.994 93.0156C211.693 93.0156 213.393 92.4492 214.809 91.0332L240.58 65.5449C243.129 62.7129 243.129 58.4648 240.297 55.916ZM155.902 54.7832C155.053 53.6504 153.92 52.5176 153.07 51.1016L85.3848 110.574C77.1719 118.504 77.1719 131.248 85.1016 139.178C89.3496 143.143 94.4473 145.125 99.5449 145.125C104.359 145.125 109.74 143.143 113.988 139.178L173.178 71.4922C171.762 70.6426 170.629 69.793 169.779 68.6602L155.902 54.7832Z" fill="black" fill-opacity="0.06"/>
<path d="M925.5 98.0742C925.5 72 943.664 49.7344 966.516 40.3594L981.75 67.0195V30.3984C981.75 27.4688 984.094 25.125 987.023 25.125H1014.27C1017.2 25.125 1019.25 27.4688 1019.25 30.3984V67.0195L1034.78 40.3594C1057.63 49.7344 1075.5 72 1075.5 98.0742L1075.79 118.875H925.793L925.5 98.0742ZM916.711 131.18C917.297 129.422 919.055 128.25 920.812 128.25H1080.19C1082.24 128.25 1084 129.422 1084.58 131.18C1085.46 132.938 1085.17 134.988 1083.7 136.16C1082.82 137.039 1063.78 156.375 1000.79 156.375C937.805 156.375 918.762 137.039 917.883 136.16C916.125 134.988 915.832 132.938 916.711 131.18Z" fill="black" fill-opacity="0.06"/>
<path d="M912 196.691L937.352 221.828C940.359 225.051 940.359 229.992 937.352 233.215L925.965 244.602C922.742 247.609 917.801 247.609 914.578 244.602L889.441 219.25C883.211 213.02 883.211 202.922 889.441 196.691C895.672 190.461 905.77 190.461 912 196.691ZM843.465 136.75L870.965 157.375L870.75 170.695L888.582 188.742C887.293 189.602 885.789 190.676 884.5 191.75C883.426 193.039 882.352 194.543 881.492 195.832L863.66 178H850.34L829.93 150.5L843.465 136.75Z" fill="black" fill-opacity="0.06"/>
<path d="M183.094 140.906C183.75 138.281 187.031 137.406 189 139.375L205.625 156.219H224V137.844L207.156 121.219C205.188 119.25 206.062 115.969 208.688 115.312C213.938 114 219.625 114 225.312 115.312C238.875 118.594 249.375 129.969 251.344 143.531C252.656 149.219 252 154.906 250.25 160.156L289.188 199.094C295.531 205.219 295.531 215.062 289.188 221.188C286.344 224.469 282.406 226 278.469 226C274.75 226 270.594 224.469 267.312 221.406L228.375 182.469C223.344 184.219 217.656 184.875 211.75 183.781C198.188 181.594 186.812 171.312 183.531 157.75C181.781 151.844 181.781 146.156 183.094 140.906ZM276.5 213.75C279.562 213.75 281.75 211.562 281.75 208.5C281.75 205.656 279.562 203.25 276.5 203.25C273.656 203.25 271.25 205.656 271.25 208.5C271.25 211.562 273.656 213.75 276.5 213.75Z" fill="black" fill-opacity="0.06"/>
<path d="M117.656 232.344L105.234 219.922L99.8438 225.312C98.4375 226.719 96.0938 226.719 94.6875 225.312C93.0469 223.906 93.0469 221.328 94.6875 219.922L100.078 214.531L86.4844 201.172L81.0938 206.562C79.6875 207.969 77.3438 207.969 75.9375 206.562C74.2969 205.156 74.2969 202.578 75.9375 201.172L81.3281 195.781L67.7344 182.422L62.3438 187.812C60.9375 189.219 58.5938 189.219 57.1875 187.812C55.5469 186.406 55.5469 183.828 57.1875 182.422L62.3438 177.031L48.9844 163.672L43.5938 169.062C42.1875 170.469 39.8438 170.469 38.4375 169.062C36.7969 167.656 36.7969 165.078 38.4375 163.672L43.5938 158.281L30.2344 144.922L24.8438 150.312C23.4375 151.719 21.0938 151.719 19.6875 150.312C18.0469 148.906 18.0469 146.328 19.6875 144.922L24.8438 139.531L12.6562 127.344C10.5469 125.234 7.26562 124.531 4.45312 125.703C1.64062 126.875 0 129.688 0 132.734V237.5C0 241.719 3.28125 245 7.5 245H112.5C115.312 245 118.125 243.359 119.297 240.547C120.469 237.734 119.766 234.453 117.656 232.344ZM30 215V185L59.7656 215H30Z" fill="black" fill-opacity="0.06"/>
</svg>
